#N canvas 78 -22 1920 997 12;
#X obj 18 254 inlet;
#X obj 1053 2913 outlet;
#X obj 141 221 s allm;
#X obj 231 222 s allun;
#X obj 141 152 bng 35 250 50 0 empty empty MUTE\ All -10 -10 0 12 #ffc7c6 #000000 #000000;
#X obj 231 152 bng 35 250 50 0 empty empty UNMUTE\ All -14 -10 0 12 #ffc7c6 #000000 #000000;
#X obj 141 195 int 1;
#X obj 231 195 int 0;
#X obj 440 155 bng 35 250 50 0 empty empty -1 8 -10 0 12 #feffc6 #000000 #000000;
#X obj 330 70 s oktMINUS;
#X obj 511 155 bng 35 250 50 0 empty empty +1 8 -10 0 12 #feffc6 #000000 #000000;
#X obj 415 71 s oktPLUS;
#X obj 609 154 bng 35 250 50 0 empty empty +1 8 -10 0 12 #c6feff #000000 #000000;
#X obj 679 153 bng 35 250 50 0 empty empty -1 8 -10 0 12 #c6feff #000000 #000000;
#X obj 675 193 s tonMINUS;
#X obj 599 194 s tonPLUS;
#X obj 251 635 vsl 19 106 24 36 0 0 empty empty Tón -1 -9 0 12 #c6feff #2f004d #000000 0 1;
#X obj 286 632 vradio 16 1 1 7 empty empty Oktáva -9 -7 0 12 #feffc6 #000000 #000000 3;
#X listbox 239 745 6 0 0 0 - - - 24;
#X listbox 244 573 3 0 0 0 - - - 24;
#X obj 294 577 tgl 24 0 empty empty MUTE 0 -10 0 12 #ffc7c6 #000000 #000000 0 1;
#X obj 297 2106 r allm;
#X obj 302 2082 r allun;
#X obj 220 2002 symbolproces, f 21;
#X obj 303 1961 r oktMINUS;
#X obj 301 1935 r oktPLUS;
#X obj 296 1875 r tonPLUS;
#X obj 296 1904 r tonMINUS;
#X obj 622 635 vsl 19 106 24 36 0 0 empty empty Tón -1 -9 0 12 #c6feff #2f004d #000000 0 1;
#X obj 657 632 vradio 16 1 1 7 empty empty Oktáva -9 -7 0 12 #feffc6 #000000 #000000 3;
#X listbox 610 745 6 0 0 0 - - - 24;
#X listbox 615 573 3 0 0 0 - - - 24;
#X obj 665 577 tgl 24 0 empty empty MUTE 0 -10 0 12 #ffc7c6 #000000 #000000 0 1;
#X obj 844 2099 r allm;
#X obj 844 2077 r allun;
#X obj 754 1996 symbolproces, f 23;
#X obj 839 1964 r oktMINUS;
#X obj 837 1936 r oktPLUS;
#X obj 829 1876 r tonPLUS;
#X obj 833 1909 r tonMINUS;
#X obj 754 1965 sel 84 116;
#X listbox 218 1928 3 0 0 0 - - - 24;
#X obj 217 1869 loadbang;
#X listbox 756 1922 3 0 0 0 - - - 24;
#X obj 754 1862 loadbang;
#X obj 755 1893 symbol T;
#X obj 1169 -72 list store;
#X obj 1039 148 bng 35 250 50 0 empty empty RANDOMIZE -12 -10 0 12 #9c00ff #000000 #000000;
#X obj 1240 -119 bng 19 250 50 0 empty empty empty 0 -10 0 12 #fcfcfc #000000 #000000;
#X obj 799 239 tgl 35 0 empty empty C 12 -15 0 18 #ffffff #000000 #000000 0 1;
#X obj 853 239 tgl 35 0 empty empty C#/Db -8 -15 0 18 #9f9f9f #000000 #000000 0 1;
#X obj 541 -426 sel 1 0;
#X obj 658 -412 sel 1 0;
#X obj 1084 -638 t b b;
#X obj 681 -295 spigot;
#X obj 728 -320 tgl 19 0 empty empty empty 0 -10 0 12 #fcfcfc #000000 #000000 0 1;
#X obj 662 -451 t f b;
#X obj 1151 -608 s clearnotes;
#X obj 1241 -151 r clearnotes;
#X obj 1079 -607 s rewrite;
#X obj 635 -335 r rewrite;
#X obj 673 -376 s nula!;
#X obj 569 -394 s nula!;
#X obj 1084 -664 r nula!;
#X obj 536 -317 spigot;
#X obj 577 -345 tgl 19 0 empty empty empty 0 -10 0 12 #fcfcfc #000000 #000000 0 1;
#X obj 509 -361 r rewrite;
#X obj 549 -457 t f b;
#X obj 1102 152 bng 30 250 50 0 empty empty Nic 6 -10 0 12 #e3c6ff #000000 #000000;
#X obj 891 29 int 0;
#X obj 956 31 int 1;
#X obj 1160 152 bng 30 250 50 0 empty empty Vše 4 -10 0 12 #c7c6ff #000000 #000000;
#X msg 551 -273 append 24;
#X msg 675 -256 append 25;
#X obj 891 59 s allclear;
#X obj 973 58 s allin;
#X obj 494 -570 r allin;
#X obj 479 -545 r allclear;
#X obj 654 -580 r allin;
#X obj 639 -555 r allclear;
#X obj 1167 -43 s randomize!;
#X obj 282 1845 r randomize!;
#X obj 842 2048 random 2;
#X obj 846 2024 r randmut;
#X obj 320 152 bng 35 250 50 0 empty empty MUTE\ Random -16 -10 0 12 #ffc7c6 #000000 #000000;
#X obj 320 196 s randmut;
#X obj 304 2058 random 2;
#X obj 304 2032 r randmut;
#X obj 909 239 tgl 35 0 empty empty D 12 -15 0 18 #ffffff #000000 #000000 0 1;
#X obj 788 -414 sel 1 0;
#X obj 811 -297 spigot;
#X obj 858 -322 tgl 19 0 empty empty empty 0 -10 0 12 #fcfcfc #000000 #000000 0 1;
#X obj 792 -453 t f b;
#X obj 765 -337 r rewrite;
#X obj 803 -378 s nula!;
#X obj 784 -582 r allin;
#X obj 769 -557 r allclear;
#X obj 967 239 tgl 35 0 empty empty D#/Eb -8 -15 0 18 #9f9f9f #000000 #000000 0 1;
#X obj 898 -395 sel 1 0;
#X obj 921 -278 spigot;
#X obj 968 -303 tgl 19 0 empty empty empty 0 -10 0 12 #fcfcfc #000000 #000000 0 1;
#X obj 902 -434 t f b;
#X obj 875 -318 r rewrite;
#X obj 913 -359 s nula!;
#X obj 894 -563 r allin;
#X obj 879 -538 r allclear;
#X obj 1031 238 tgl 35 0 empty empty E 12 -15 0 18 #ffffff #000000 #000000 0 1;
#X obj 1024 -392 sel 1 0;
#X obj 1047 -275 spigot;
#X obj 1094 -300 tgl 19 0 empty empty empty 0 -10 0 12 #fcfcfc #000000 #000000 0 1;
#X obj 1028 -431 t f b;
#X obj 1001 -315 r rewrite;
#X obj 1039 -356 s nula!;
#X obj 1020 -560 r allin;
#X obj 1005 -535 r allclear;
#X obj 1089 238 tgl 35 0 empty empty F 12 -15 0 18 #ffffff #000000 #000000 0 1;
#X obj 1155 -390 sel 1 0;
#X obj 1178 -273 spigot;
#X obj 1225 -298 tgl 19 0 empty empty empty 0 -10 0 12 #fcfcfc #000000 #000000 0 1;
#X obj 1159 -429 t f b;
#X obj 1132 -313 r rewrite;
#X obj 1170 -354 s nula!;
#X obj 1151 -558 r allin;
#X obj 1136 -533 r allclear;
#X obj 1147 237 tgl 35 0 empty empty F#/Gb -8 -15 0 18 #9f9f9f #000000 #000000 0 1;
#X obj 1281 -380 sel 1 0;
#X obj 1304 -263 spigot;
#X obj 1351 -288 tgl 19 0 empty empty empty 0 -10 0 12 #fcfcfc #000000 #000000 0 1;
#X obj 1285 -419 t f b;
#X obj 1258 -303 r rewrite;
#X obj 1296 -344 s nula!;
#X obj 1277 -548 r allin;
#X obj 1262 -523 r allclear;
#X obj 1268 238 tgl 35 0 empty empty G#/Ab -8 -15 0 18 #9f9f9f #000000 #000000 0 1;
#X obj 1552 -384 sel 1 0;
#X obj 1575 -267 spigot;
#X obj 1622 -292 tgl 19 0 empty empty empty 0 -10 0 12 #fcfcfc #000000 #000000 0 1;
#X obj 1556 -423 t f b;
#X obj 1529 -307 r rewrite;
#X obj 1567 -348 s nula!;
#X obj 1548 -552 r allin;
#X obj 1533 -527 r allclear;
#X obj 1207 237 tgl 35 0 empty empty G 12 -15 0 18 #ffffff #000000 #000000 0 1;
#X obj 1409 -389 sel 1 0;
#X obj 1432 -272 spigot;
#X obj 1479 -297 tgl 19 0 empty empty empty 0 -10 0 12 #fcfcfc #000000 #000000 0 1;
#X obj 1413 -428 t f b;
#X obj 1386 -312 r rewrite;
#X obj 1424 -353 s nula!;
#X obj 1405 -557 r allin;
#X obj 1390 -532 r allclear;
#X obj 1323 237 tgl 35 0 empty empty A 12 -15 0 18 #ffffff #000000 #000000 0 1;
#X obj 1675 -374 sel 1 0;
#X obj 1698 -257 spigot;
#X obj 1745 -282 tgl 19 0 empty empty empty 0 -10 0 12 #fcfcfc #000000 #000000 0 1;
#X obj 1679 -413 t f b;
#X obj 1652 -297 r rewrite;
#X obj 1690 -338 s nula!;
#X obj 1671 -542 r allin;
#X obj 1656 -517 r allclear;
#X obj 1378 237 tgl 35 0 empty empty A#/Bb -8 -15 0 18 #9f9f9f #000000 #000000 0 1;
#X obj 1799 -362 sel 1 0;
#X obj 1822 -245 spigot;
#X obj 1869 -270 tgl 19 0 empty empty empty 0 -10 0 12 #fcfcfc #000000 #000000 0 1;
#X obj 1803 -401 t f b;
#X obj 1776 -285 r rewrite;
#X obj 1814 -326 s nula!;
#X obj 1795 -530 r allin;
#X obj 1780 -505 r allclear;
#X obj 1431 237 tgl 35 0 empty empty B 12 -15 0 18 #ffffff #000000 #000000 0 1;
#X obj 1916 -372 sel 1 0;
#X obj 1947 -241 spigot;
#X obj 1994 -266 tgl 19 0 empty empty empty 0 -10 0 12 #fcfcfc #000000 #000000 0 1;
#X obj 1920 -411 t f b;
#X obj 1900 -274 r rewrite;
#X obj 1931 -336 s nula!;
#X obj 1920 -526 r allin;
#X obj 1905 -501 r allclear;
#X msg 805 -258 append 26;
#X msg 915 -239 append 27;
#X msg 1041 -236 append 28;
#X msg 1172 -234 append 29;
#X msg 1298 -224 append 30;
#X msg 1426 -233 append 31;
#X msg 1569 -228 append 32;
#X msg 1692 -218 append 33;
#X msg 1816 -206 append 34;
#X msg 1941 -202 append 35;
#X obj 823 1847 r randomize!;
#X obj 138 633 vsl 19 106 24 36 0 0 empty empty Tón -1 -9 0 12 #c6feff #2f004d #000000 0 1;
#X obj 173 630 vradio 16 1 1 7 empty empty Oktáva -9 -7 0 12 #feffc6 #000000 #000000 3;
#X listbox 126 743 6 0 0 0 - - - 24;
#X listbox 131 571 3 0 0 0 - - - 24;
#X obj 181 575 tgl 24 0 empty empty MUTE 0 -10 0 12 #ffc7c6 #000000 #000000 0 1;
#X obj 129 2108 r allm;
#X obj 134 2084 r allun;
#X obj 52 2004 symbolproces, f 21;
#X obj 135 1963 r oktMINUS;
#X obj 133 1937 r oktPLUS;
#X obj 128 1877 r tonPLUS;
#X obj 128 1906 r tonMINUS;
#X listbox 50 1930 3 0 0 0 - - - 24;
#X obj 49 1871 loadbang;
#X obj 114 1847 r randomize!;
#X obj 136 2060 random 2;
#X obj 136 2034 r randmut;
#X obj 372 636 vsl 19 106 24 36 0 0 empty empty Tón -1 -9 0 12 #c6feff #2f004d #000000 0 1;
#X obj 407 633 vradio 16 1 1 7 empty empty Oktáva -9 -7 0 12 #feffc6 #000000 #000000 3;
#X listbox 360 746 6 0 0 0 - - - 24;
#X listbox 365 574 3 0 0 0 - - - 24;
#X obj 415 578 tgl 24 0 empty empty MUTE 0 -10 0 12 #ffc7c6 #000000 #000000 0 1;
#X obj 474 2107 r allm;
#X obj 479 2083 r allun;
#X obj 397 2003 symbolproces, f 21;
#X obj 480 1962 r oktMINUS;
#X obj 478 1936 r oktPLUS;
#X obj 473 1876 r tonPLUS;
#X obj 473 1905 r tonMINUS;
#X obj 394 1971 sel 69 101;
#X listbox 395 1929 3 0 0 0 - - - 24;
#X obj 394 1870 loadbang;
#X obj 395 1901 symbol E;
#X obj 459 1846 r randomize!;
#X obj 481 2059 random 2;
#X obj 481 2033 r randmut;
#X obj 499 635 vsl 19 106 24 36 0 0 empty empty Tón -1 -9 0 12 #c6feff #2f004d #000000 0 1;
#X obj 534 632 vradio 16 1 1 7 empty empty Oktáva -9 -7 0 12 #feffc6 #000000 #000000 3;
#X listbox 487 745 6 0 0 0 - - - 24;
#X listbox 492 573 3 0 0 0 - - - 24;
#X obj 542 577 tgl 24 0 empty empty MUTE 0 -10 0 12 #ffc7c6 #000000 #000000 0 1;
#X obj 664 2101 r allm;
#X obj 664 2079 r allun;
#X obj 574 1998 symbolproces, f 23;
#X obj 659 1966 r oktMINUS;
#X obj 657 1938 r oktPLUS;
#X obj 649 1878 r tonPLUS;
#X obj 653 1911 r tonMINUS;
#X listbox 576 1924 3 0 0 0 - - - 24;
#X obj 574 1864 loadbang;
#X obj 662 2050 random 2;
#X obj 666 2026 r randmut;
#X obj 643 1849 r randomize!;
#X obj 50 1902 symbol Q;
#X obj 218 1900 symbol W;
#X obj 575 1895 symbol R;
#X obj 49 1972 sel 81 113;
#X obj 217 1970 sel 87 119;
#X obj 574 1967 sel 82 114;
#X obj 842 1819 r randoct;
#X obj 652 1823 r randoct;
#X obj 485 1817 r randoct;
#X obj 304 1818 r randoct;
#X obj 148 1819 r randoct;
#X obj 442 218 bng 35 250 50 0 empty empty Random -4 -10 0 12 #faff00 #000000 #000000;
#X obj 443 257 int 1;
#X obj 512 218 bng 35 250 50 0 empty empty Střed. -2 -10 0 12 #00ff04 #000000 #000000;
#X obj 514 257 int 2;
#X obj 443 279 s randoct;
#X obj 514 281 s randoct;
#X obj 1165 -144 t b b;
#X obj 734 634 vsl 19 106 24 36 0 0 empty empty Tón -1 -9 0 12 #c6feff #2f004d #000000 0 1;
#X obj 769 631 vradio 16 1 1 7 empty empty Oktáva -9 -7 0 12 #feffc6 #000000 #000000 3;
#X listbox 722 744 6 0 0 0 - - - 24;
#X listbox 727 572 3 0 0 0 - - - 24;
#X obj 777 576 tgl 24 0 empty empty MUTE 0 -10 0 12 #ffc7c6 #000000 #000000 0 1;
#X obj 1027 2101 r allm;
#X obj 1027 2079 r allun;
#X obj 937 1998 symbolproces, f 23;
#X obj 1022 1966 r oktMINUS;
#X obj 1020 1938 r oktPLUS;
#X obj 1012 1878 r tonPLUS;
#X obj 1016 1911 r tonMINUS;
#X listbox 939 1924 3 0 0 0 - - - 24;
#X obj 937 1864 loadbang;
#X obj 1025 2050 random 2;
#X obj 1029 2026 r randmut;
#X obj 1006 1849 r randomize!;
#X obj 1025 1821 r randoct;
#X obj 847 632 vsl 19 106 24 36 0 0 empty empty Tón -1 -9 0 12 #c6feff #2f004d #000000 0 1;
#X obj 882 629 vradio 16 1 1 7 empty empty Oktáva -9 -7 0 12 #feffc6 #000000 #000000 3;
#X listbox 835 742 6 0 0 0 - - - 24;
#X listbox 840 570 3 0 0 0 - - - 24;
#X obj 920 574 tgl 24 0 empty empty MUTE 0 -10 0 12 #ffc7c6 #000000 #000000 0 1;
#X obj 1202 2100 r allm;
#X obj 1202 2078 r allun;
#X obj 1112 1997 symbolproces, f 23;
#X obj 1197 1965 r oktMINUS;
#X obj 1195 1937 r oktPLUS;
#X obj 1187 1877 r tonPLUS;
#X obj 1191 1910 r tonMINUS;
#X listbox 1114 1923 3 0 0 0 - - - 24;
#X obj 1112 1863 loadbang;
#X obj 1200 2049 random 2;
#X obj 1204 2025 r randmut;
#X obj 1181 1848 r randomize!;
#X obj 1200 1820 r randoct;
#X obj 962 634 vsl 19 106 24 36 0 0 empty empty Tón -1 -9 0 12 #c6feff #2f004d #000000 0 1;
#X obj 997 631 vradio 16 1 1 7 empty empty Oktáva -9 -7 0 12 #feffc6 #000000 #000000 3;
#X listbox 950 744 6 0 0 0 - - - 24;
#X listbox 955 572 3 0 0 0 - - - 24;
#X obj 1005 576 tgl 24 0 empty empty MUTE 0 -10 0 12 #ffc7c6 #000000 #000000 0 1;
#X obj 1380 2098 r allm;
#X obj 1380 2076 r allun;
#X obj 1290 1995 symbolproces, f 23;
#X obj 1375 1963 r oktMINUS;
#X obj 1373 1935 r oktPLUS;
#X obj 1365 1875 r tonPLUS;
#X obj 1369 1908 r tonMINUS;
#X listbox 1292 1921 3 0 0 0 - - - 24;
#X obj 1290 1861 loadbang;
#X obj 1378 2047 random 2;
#X obj 1382 2023 r randmut;
#X obj 1359 1846 r randomize!;
#X obj 1378 1818 r randoct;
#X obj 1086 637 vsl 19 106 24 36 0 0 empty empty Tón -1 -9 0 12 #c6feff #2f004d #000000 0 1;
#X obj 1121 634 vradio 16 1 1 7 empty empty Oktáva -9 -7 0 12 #feffc6 #000000 #000000 3;
#X listbox 1074 747 6 0 0 0 - - - 24;
#X listbox 1079 575 3 0 0 0 - - - 24;
#X obj 1129 579 tgl 24 0 empty empty MUTE 0 -10 0 12 #ffc7c6 #000000 #000000 0 1;
#X obj 1555 2097 r allm;
#X obj 1555 2075 r allun;
#X obj 1465 1994 symbolproces, f 23;
#X obj 1550 1962 r oktMINUS;
#X obj 1548 1934 r oktPLUS;
#X obj 1540 1874 r tonPLUS;
#X obj 1544 1907 r tonMINUS;
#X listbox 1467 1920 3 0 0 0 - - - 24;
#X obj 1465 1860 loadbang;
#X obj 1553 2046 random 2;
#X obj 1557 2022 r randmut;
#X obj 1534 1845 r randomize!;
#X obj 1553 1817 r randoct;
#X obj 938 1895 symbol Z;
#X obj 1113 1894 symbol U;
#X obj 1291 1892 symbol I;
#X obj 1466 1891 symbol O;
#X obj 937 1967 sel 90 122;
#X obj 1112 1966 sel 85 117;
#X obj 1290 1964 sel 73 105;
#X obj 1465 1963 sel 79 111;
#X obj 1200 637 vsl 19 106 24 36 0 0 empty empty Tón -1 -9 0 12 #c6feff #2f004d #000000 0 1;
#X obj 1235 634 vradio 16 1 1 7 empty empty Oktáva -9 -7 0 12 #feffc6 #000000 #000000 3;
#X listbox 1188 747 6 0 0 0 - - - 24;
#X listbox 1193 575 3 0 0 0 - - - 24;
#X obj 1243 579 tgl 24 0 empty empty MUTE 0 -10 0 12 #ffc7c6 #000000 #000000 0 1;
#X obj 1734 2096 r allm;
#X obj 1734 2074 r allun;
#X obj 1644 1993 symbolproces, f 23;
#X obj 1729 1961 r oktMINUS;
#X obj 1727 1933 r oktPLUS;
#X obj 1719 1873 r tonPLUS;
#X obj 1723 1906 r tonMINUS;
#X listbox 1646 1919 3 0 0 0 - - - 24;
#X obj 1644 1859 loadbang;
#X obj 1732 2045 random 2;
#X obj 1736 2021 r randmut;
#X obj 1713 1844 r randomize!;
#X obj 1732 1816 r randoct;
#X obj 1645 1890 symbol P;
#X obj 1644 1962 sel 80 112;
#X obj 1322 639 vsl 19 106 24 36 0 0 empty empty Tón -1 -9 0 12 #c6feff #2f004d #000000 0 1;
#X obj 1357 636 vradio 16 1 1 7 empty empty Oktáva -9 -7 0 12 #feffc6 #000000 #000000 3;
#X listbox 1310 749 6 0 0 0 - - - 24;
#X listbox 1315 577 3 0 0 0 - - - 24;
#X obj 1365 581 tgl 24 0 empty empty MUTE 0 -10 0 12 #ffc7c6 #000000 #000000 0 1;
#X obj 1926 2096 r allm;
#X obj 1926 2074 r allun;
#X obj 1833 1992 symbolproces, f 23;
#X obj 1921 1961 r oktMINUS;
#X obj 1919 1933 r oktPLUS;
#X obj 1911 1873 r tonPLUS;
#X obj 1915 1906 r tonMINUS;
#X listbox 1835 1918 3 0 0 0 - - - 24;
#X obj 1833 1858 loadbang;
#X obj 1924 2045 random 2;
#X obj 1928 2021 r randmut;
#X obj 1905 1844 r randomize!;
#X obj 1924 1816 r randoct;
#X obj 1834 1889 symbol Ú;
#X obj 826 2895 r nic;
#X obj 34 604 loadbang;
#X obj 178 883 vsl 19 106 24 36 0 0 empty empty Tón -1 -9 0 12 #c6feff #2f004d #000000 0 1;
#X obj 213 880 vradio 16 1 1 7 empty empty Oktáva -9 -7 0 12 #feffc6 #000000 #000000 3;
#X listbox 164 993 6 0 0 0 - - - 24;
#X listbox 171 821 3 0 0 0 - - - 24;
#X obj 221 825 tgl 24 0 empty empty MUTE 0 -10 0 12 #ffc7c6 #000000 #000000 0 1;
#X obj 128 2438 r allm;
#X obj 128 2416 r allun;
#X obj 38 2335 symbolproces, f 23;
#X obj 123 2303 r oktMINUS;
#X obj 121 2275 r oktPLUS;
#X obj 113 2215 r tonPLUS;
#X obj 117 2248 r tonMINUS;
#X listbox 40 2261 3 0 0 0 - - - 24;
#X obj 38 2201 loadbang;
#X obj 126 2387 random 2;
#X obj 130 2363 r randmut;
#X obj 107 2186 r randomize!;
#X obj 126 2158 r randoct;
#X obj 307 886 vsl 19 106 24 36 0 0 empty empty Tón -1 -9 0 12 #c6feff #2f004d #000000 0 1;
#X obj 342 883 vradio 16 1 1 7 empty empty Oktáva -9 -7 0 12 #feffc6 #000000 #000000 3;
#X listbox 293 996 6 0 0 0 - - - 24;
#X listbox 300 824 3 0 0 0 - - - 24;
#X obj 350 828 tgl 24 0 empty empty MUTE 0 -10 0 12 #ffc7c6 #000000 #000000 0 1;
#X obj 307 2440 r allm;
#X obj 307 2418 r allun;
#X obj 217 2337 symbolproces, f 23;
#X obj 302 2305 r oktMINUS;
#X obj 300 2277 r oktPLUS;
#X obj 292 2217 r tonPLUS;
#X obj 296 2250 r tonMINUS;
#X listbox 219 2263 3 0 0 0 - - - 24;
#X obj 217 2203 loadbang;
#X obj 305 2389 random 2;
#X obj 309 2365 r randmut;
#X obj 286 2188 r randomize!;
#X obj 305 2160 r randoct;
#X obj 438 887 vsl 19 106 24 36 0 0 empty empty Tón -1 -9 0 12 #c6feff #2f004d #000000 0 1;
#X obj 473 884 vradio 16 1 1 7 empty empty Oktáva -9 -7 0 12 #feffc6 #000000 #000000 3;
#X listbox 424 997 6 0 0 0 - - - 24;
#X listbox 431 825 3 0 0 0 - - - 24;
#X obj 481 829 tgl 24 0 empty empty MUTE 0 -10 0 12 #ffc7c6 #000000 #000000 0 1;
#X obj 483 2441 r allm;
#X obj 483 2419 r allun;
#X obj 393 2338 symbolproces, f 23;
#X obj 478 2306 r oktMINUS;
#X obj 476 2278 r oktPLUS;
#X obj 468 2218 r tonPLUS;
#X obj 472 2251 r tonMINUS;
#X listbox 395 2264 3 0 0 0 - - - 24;
#X obj 393 2204 loadbang;
#X obj 481 2390 random 2;
#X obj 485 2366 r randmut;
#X obj 462 2189 r randomize!;
#X obj 481 2161 r randoct;
#X obj 555 887 vsl 19 106 24 36 0 0 empty empty Tón -1 -9 0 12 #c6feff #2f004d #000000 0 1;
#X obj 590 884 vradio 16 1 1 7 empty empty Oktáva -9 -7 0 12 #feffc6 #000000 #000000 3;
#X listbox 541 997 6 0 0 0 - - - 24;
#X listbox 548 825 3 0 0 0 - - - 24;
#X obj 598 829 tgl 24 0 empty empty MUTE 0 -10 0 12 #ffc7c6 #000000 #000000 0 1;
#X obj 662 2443 r allm;
#X obj 662 2421 r allun;
#X obj 572 2340 symbolproces, f 23;
#X obj 657 2308 r oktMINUS;
#X obj 655 2280 r oktPLUS;
#X obj 647 2220 r tonPLUS;
#X obj 651 2253 r tonMINUS;
#X listbox 574 2266 3 0 0 0 - - - 24;
#X obj 572 2206 loadbang;
#X obj 660 2392 random 2;
#X obj 664 2368 r randmut;
#X obj 641 2191 r randomize!;
#X obj 660 2163 r randoct;
#X obj 684 884 vsl 19 106 24 36 0 0 empty empty Tón -1 -9 0 12 #c6feff #2f004d #000000 0 1;
#X obj 719 881 vradio 16 1 1 7 empty empty Oktáva -9 -7 0 12 #feffc6 #000000 #000000 3;
#X listbox 670 994 6 0 0 0 - - - 24;
#X listbox 677 822 3 0 0 0 - - - 24;
#X obj 727 826 tgl 24 0 empty empty MUTE 0 -10 0 12 #ffc7c6 #000000 #000000 0 1;
#X obj 846 2441 r allm;
#X obj 846 2419 r allun;
#X obj 756 2338 symbolproces, f 23;
#X obj 841 2306 r oktMINUS;
#X obj 839 2278 r oktPLUS;
#X obj 831 2218 r tonPLUS;
#X obj 835 2251 r tonMINUS;
#X listbox 758 2264 3 0 0 0 - - - 24;
#X obj 756 2204 loadbang;
#X obj 844 2390 random 2;
#X obj 848 2366 r randmut;
#X obj 825 2189 r randomize!;
#X obj 844 2161 r randoct;
#X obj 795 885 vsl 19 106 24 36 0 0 empty empty Tón -1 -9 0 12 #c6feff #2f004d #000000 0 1;
#X obj 830 882 vradio 16 1 1 7 empty empty Oktáva -9 -7 0 12 #feffc6 #000000 #000000 3;
#X listbox 781 995 6 0 0 0 - - - 24;
#X listbox 788 823 3 0 0 0 - - - 24;
#X obj 838 827 tgl 24 0 empty empty MUTE 0 -10 0 12 #ffc7c6 #000000 #000000 0 1;
#X obj 1025 2443 r allm;
#X obj 1025 2421 r allun;
#X obj 935 2340 symbolproces, f 23;
#X obj 1020 2308 r oktMINUS;
#X obj 1018 2280 r oktPLUS;
#X obj 1010 2220 r tonPLUS;
#X obj 1014 2253 r tonMINUS;
#X listbox 937 2266 3 0 0 0 - - - 24;
#X obj 935 2206 loadbang;
#X obj 1023 2392 random 2;
#X obj 1027 2368 r randmut;
#X obj 1004 2191 r randomize!;
#X obj 1023 2163 r randoct;
#X obj 906 884 vsl 19 106 24 36 0 0 empty empty Tón -1 -9 0 12 #c6feff #2f004d #000000 0 1;
#X obj 941 881 vradio 16 1 1 7 empty empty Oktáva -9 -7 0 12 #feffc6 #000000 #000000 3;
#X listbox 892 994 6 0 0 0 - - - 24;
#X listbox 899 822 3 0 0 0 - - - 24;
#X obj 949 826 tgl 24 0 empty empty MUTE 0 -10 0 12 #ffc7c6 #000000 #000000 0 1;
#X obj 1201 2444 r allm;
#X obj 1201 2422 r allun;
#X obj 1111 2341 symbolproces, f 23;
#X obj 1196 2309 r oktMINUS;
#X obj 1194 2281 r oktPLUS;
#X obj 1186 2221 r tonPLUS;
#X obj 1190 2254 r tonMINUS;
#X listbox 1113 2267 3 0 0 0 - - - 24;
#X obj 1111 2207 loadbang;
#X obj 1199 2393 random 2;
#X obj 1203 2369 r randmut;
#X obj 1180 2192 r randomize!;
#X obj 1199 2164 r randoct;
#X obj 1031 881 vsl 19 106 24 36 0 0 empty empty Tón -1 -9 0 12 #c6feff #2f004d #000000 0 1;
#X obj 1066 878 vradio 16 1 1 7 empty empty Oktáva -9 -7 0 12 #feffc6 #000000 #000000 3;
#X listbox 1017 991 6 0 0 0 - - - 24;
#X listbox 1024 819 3 0 0 0 - - - 24;
#X obj 1074 823 tgl 24 0 empty empty MUTE 0 -10 0 12 #ffc7c6 #000000 #000000 0 1;
#X obj 1380 2446 r allm;
#X obj 1380 2424 r allun;
#X obj 1290 2343 symbolproces, f 23;
#X obj 1375 2311 r oktMINUS;
#X obj 1373 2283 r oktPLUS;
#X obj 1365 2223 r tonPLUS;
#X obj 1369 2256 r tonMINUS;
#X listbox 1292 2269 3 0 0 0 - - - 24;
#X obj 1290 2209 loadbang;
#X obj 1378 2395 random 2;
#X obj 1382 2371 r randmut;
#X obj 1359 2194 r randomize!;
#X obj 1378 2166 r randoct;
#X obj 1156 886 vsl 19 106 24 36 0 0 empty empty Tón -1 -9 0 12 #c6feff #2f004d #000000 0 1;
#X obj 1191 883 vradio 16 1 1 7 empty empty Oktáva -9 -7 0 12 #feffc6 #000000 #000000 3;
#X listbox 1142 996 6 0 0 0 - - - 24;
#X listbox 1149 824 3 0 0 0 - - - 24;
#X obj 1199 828 tgl 24 0 empty empty MUTE 0 -10 0 12 #ffc7c6 #000000 #000000 0 1;
#X obj 1560 2443 r allm;
#X obj 1560 2421 r allun;
#X obj 1470 2340 symbolproces, f 23;
#X obj 1555 2308 r oktMINUS;
#X obj 1553 2280 r oktPLUS;
#X obj 1545 2220 r tonPLUS;
#X obj 1549 2253 r tonMINUS;
#X listbox 1472 2266 3 0 0 0 - - - 24;
#X obj 1470 2206 loadbang;
#X obj 1558 2392 random 2;
#X obj 1562 2368 r randmut;
#X obj 1539 2191 r randomize!;
#X obj 1558 2163 r randoct;
#X obj 1275 889 vsl 19 106 24 36 0 0 empty empty Tón -1 -9 0 12 #c6feff #2f004d #000000 0 1;
#X obj 1310 886 vradio 16 1 1 7 empty empty Oktáva -9 -7 0 12 #feffc6 #000000 #000000 3;
#X listbox 1261 999 6 0 0 0 - - - 24;
#X listbox 1268 827 3 0 0 0 - - - 24;
#X obj 1318 831 tgl 24 0 empty empty MUTE 0 -10 0 12 #ffc7c6 #000000 #000000 0 1;
#X obj 1738 2443 r allm;
#X obj 1738 2421 r allun;
#X obj 1648 2340 symbolproces, f 23;
#X obj 1733 2308 r oktMINUS;
#X obj 1731 2280 r oktPLUS;
#X obj 1723 2220 r tonPLUS;
#X obj 1727 2253 r tonMINUS;
#X listbox 1650 2266 3 0 0 0 - - - 24;
#X obj 1648 2206 loadbang;
#X obj 1736 2392 random 2;
#X obj 1740 2368 r randmut;
#X obj 1717 2191 r randomize!;
#X obj 1736 2163 r randoct;
#X obj 39 2232 symbol A;
#X obj 218 2234 symbol S;
#X obj 394 2235 symbol D;
#X obj 573 2237 symbol F;
#X obj 757 2235 symbol G;
#X obj 936 2237 symbol H;
#X obj 1112 2238 symbol J;
#X obj 1291 2240 symbol K;
#X obj 1471 2237 symbol L;
#X obj 1649 2237 symbol Ů;
#X obj 33 2304 sel 97 65;
#X obj 212 2306 sel 115 83;
#X obj 388 2307 sel 68 100;
#X obj 567 2309 sel 70 102;
#X obj 751 2307 sel 71 103;
#X obj 930 2309 sel 72 104;
#X obj 1106 2310 sel 74 106;
#X obj 1285 2312 sel 75 107;
#X obj 1465 2309 sel 76 108;
#X obj 228 1124 vsl 19 106 24 36 0 0 empty empty Tón -1 -9 0 12 #c6feff #2f004d #000000 0 1;
#X obj 263 1121 vradio 16 1 1 7 empty empty Oktáva -9 -7 0 12 #feffc6 #000000 #000000 3;
#X listbox 214 1234 6 0 0 0 - - - 24;
#X listbox 221 1062 3 0 0 0 - - - 24;
#X obj 271 1066 tgl 24 0 empty empty MUTE 0 -10 0 12 #ffc7c6 #000000 #000000 0 1;
#X obj 143 2789 r allm;
#X obj 143 2767 r allun;
#X obj 53 2686 symbolproces, f 23;
#X obj 138 2654 r oktMINUS;
#X obj 136 2626 r oktPLUS;
#X obj 128 2566 r tonPLUS;
#X obj 132 2599 r tonMINUS;
#X listbox 55 2612 3 0 0 0 - - - 24;
#X obj 53 2552 loadbang;
#X obj 141 2738 random 2;
#X obj 145 2714 r randmut;
#X obj 122 2537 r randomize!;
#X obj 141 2509 r randoct;
#X obj 367 1125 vsl 19 106 24 36 0 0 empty empty Tón -1 -9 0 12 #c6feff #2f004d #000000 0 1;
#X obj 402 1122 vradio 16 1 1 7 empty empty Oktáva -9 -7 0 12 #feffc6 #000000 #000000 3;
#X listbox 353 1235 6 0 0 0 - - - 24;
#X listbox 360 1063 3 0 0 0 - - - 24;
#X obj 410 1067 tgl 24 0 empty empty MUTE 0 -10 0 12 #ffc7c6 #000000 #000000 0 1;
#X obj 331 2787 r allm;
#X obj 331 2765 r allun;
#X obj 241 2684 symbolproces, f 23;
#X obj 326 2652 r oktMINUS;
#X obj 324 2624 r oktPLUS;
#X obj 316 2564 r tonPLUS;
#X obj 320 2597 r tonMINUS;
#X listbox 243 2610 3 0 0 0 - - - 24;
#X obj 241 2550 loadbang;
#X obj 329 2736 random 2;
#X obj 333 2712 r randmut;
#X obj 310 2535 r randomize!;
#X obj 329 2507 r randoct;
#X obj 489 1125 vsl 19 106 24 36 0 0 empty empty Tón -1 -9 0 12 #c6feff #2f004d #000000 0 1;
#X obj 524 1122 vradio 16 1 1 7 empty empty Oktáva -9 -7 0 12 #feffc6 #000000 #000000 3;
#X listbox 475 1235 6 0 0 0 - - - 24;
#X listbox 482 1063 3 0 0 0 - - - 24;
#X obj 532 1067 tgl 24 0 empty empty MUTE 0 -10 0 12 #ffc7c6 #000000 #000000 0 1;
#X obj 523 2791 r allm;
#X obj 523 2769 r allun;
#X obj 433 2688 symbolproces, f 23;
#X obj 518 2656 r oktMINUS;
#X obj 516 2628 r oktPLUS;
#X obj 508 2568 r tonPLUS;
#X obj 512 2601 r tonMINUS;
#X listbox 435 2614 3 0 0 0 - - - 24;
#X obj 433 2554 loadbang;
#X obj 521 2740 random 2;
#X obj 525 2716 r randmut;
#X obj 502 2539 r randomize!;
#X obj 521 2511 r randoct;
#X obj 614 1125 vsl 19 106 24 36 0 0 empty empty Tón -1 -9 0 12 #c6feff #2f004d #000000 0 1;
#X obj 649 1122 vradio 16 1 1 7 empty empty Oktáva -9 -7 0 12 #feffc6 #000000 #000000 3;
#X listbox 600 1235 6 0 0 0 - - - 24;
#X listbox 607 1063 3 0 0 0 - - - 24;
#X obj 657 1067 tgl 24 0 empty empty MUTE 0 -10 0 12 #ffc7c6 #000000 #000000 0 1;
#X obj 711 2789 r allm;
#X obj 711 2767 r allun;
#X obj 621 2686 symbolproces, f 23;
#X obj 706 2654 r oktMINUS;
#X obj 704 2626 r oktPLUS;
#X obj 696 2566 r tonPLUS;
#X obj 700 2599 r tonMINUS;
#X listbox 623 2612 3 0 0 0 - - - 24;
#X obj 621 2552 loadbang;
#X obj 709 2738 random 2;
#X obj 713 2714 r randmut;
#X obj 690 2537 r randomize!;
#X obj 709 2509 r randoct;
#X obj 734 1127 vsl 19 106 24 36 0 0 empty empty Tón -1 -9 0 12 #c6feff #2f004d #000000 0 1;
#X obj 769 1124 vradio 16 1 1 7 empty empty Oktáva -9 -7 0 12 #feffc6 #000000 #000000 3;
#X listbox 720 1237 6 0 0 0 - - - 24;
#X listbox 727 1065 3 0 0 0 - - - 24;
#X obj 777 1069 tgl 24 0 empty empty MUTE 0 -10 0 12 #ffc7c6 #000000 #000000 0 1;
#X obj 895 2791 r allm;
#X obj 895 2769 r allun;
#X obj 805 2688 symbolproces, f 23;
#X obj 890 2656 r oktMINUS;
#X obj 888 2628 r oktPLUS;
#X obj 880 2568 r tonPLUS;
#X obj 884 2601 r tonMINUS;
#X listbox 807 2614 3 0 0 0 - - - 24;
#X obj 805 2554 loadbang;
#X obj 893 2740 random 2;
#X obj 897 2716 r randmut;
#X obj 874 2539 r randomize!;
#X obj 893 2511 r randoct;
#X obj 853 1128 vsl 19 106 24 36 0 0 empty empty Tón -1 -9 0 12 #c6feff #2f004d #000000 0 1;
#X obj 888 1125 vradio 16 1 1 7 empty empty Oktáva -9 -7 0 12 #feffc6 #000000 #000000 3;
#X listbox 839 1238 6 0 0 0 - - - 24;
#X listbox 846 1066 3 0 0 0 - - - 24;
#X obj 896 1070 tgl 24 0 empty empty MUTE 0 -10 0 12 #ffc7c6 #000000 #000000 0 1;
#X obj 1083 2789 r allm;
#X obj 1083 2767 r allun;
#X obj 993 2686 symbolproces, f 23;
#X obj 1078 2654 r oktMINUS;
#X obj 1076 2626 r oktPLUS;
#X obj 1068 2566 r tonPLUS;
#X obj 1072 2599 r tonMINUS;
#X listbox 995 2612 3 0 0 0 - - - 24;
#X obj 993 2552 loadbang;
#X obj 1081 2738 random 2;
#X obj 1085 2714 r randmut;
#X obj 1062 2537 r randomize!;
#X obj 1081 2509 r randoct;
#X obj 973 1130 vsl 19 106 24 36 0 0 empty empty Tón -1 -9 0 12 #c6feff #2f004d #000000 0 1;
#X obj 1008 1127 vradio 16 1 1 7 empty empty Oktáva -9 -7 0 12 #feffc6 #000000 #000000 3;
#X listbox 959 1240 6 0 0 0 - - - 24;
#X listbox 966 1068 3 0 0 0 - - - 24;
#X obj 1016 1072 tgl 24 0 empty empty MUTE 0 -10 0 12 #ffc7c6 #000000 #000000 0 1;
#X obj 1274 2797 r allm;
#X obj 1274 2775 r allun;
#X obj 1184 2694 symbolproces, f 23;
#X obj 1269 2662 r oktMINUS;
#X obj 1267 2634 r oktPLUS;
#X obj 1259 2574 r tonPLUS;
#X obj 1263 2607 r tonMINUS;
#X listbox 1186 2620 3 0 0 0 - - - 24;
#X obj 1184 2560 loadbang;
#X obj 1272 2746 random 2;
#X obj 1276 2722 r randmut;
#X obj 1253 2545 r randomize!;
#X obj 1272 2517 r randoct;
#X obj 54 2583 symbol Y;
#X obj 242 2581 symbol X;
#X obj 434 2585 symbol C;
#X obj 622 2583 symbol V;
#X obj 806 2585 symbol B;
#X obj 994 2583 symbol N;
#X obj 1185 2591 symbol M;
#X obj 1705 876 loadbang;
#X obj -39 1099 loadbang;
#X obj 48 2655 sel 89 121;
#X obj 236 2653 sel 88 120;
#X obj 428 2657 sel 67 99;
#X obj 616 2655 sel 86 118;
#X obj 800 2657 sel 66 98;
#X obj 988 2655 sel 78 110;
#X obj 1179 2663 sel 77 109;
#X obj 1084 1129 vsl 19 106 24 36 0 0 empty empty Tón -1 -9 0 12 #c6feff #2f004d #000000 0 1;
#X obj 1119 1126 vradio 16 1 1 7 empty empty Oktáva -9 -7 0 12 #feffc6 #000000 #000000 3;
#X listbox 1070 1239 6 0 0 0 - - - 24;
#X listbox 1077 1067 3 0 0 0 - - - 24;
#X obj 1127 1071 tgl 24 0 empty empty MUTE 0 -10 0 12 #ffc7c6 #000000 #000000 0 1;
#X obj 1514 2796 r allm;
#X obj 1514 2774 r allun;
#X obj 1424 2693 symbolproces, f 23;
#X obj 1509 2661 r oktMINUS;
#X obj 1507 2633 r oktPLUS;
#X obj 1499 2573 r tonPLUS;
#X obj 1503 2606 r tonMINUS;
#X listbox 1426 2619 3 0 0 0 - - - 24;
#X obj 1424 2559 loadbang;
#X obj 1512 2745 random 2;
#X obj 1516 2721 r randmut;
#X obj 1493 2544 r randomize!;
#X obj 1512 2516 r randoct;
#X obj 1200 1129 vsl 19 106 24 36 0 0 empty empty Tón -1 -9 0 12 #c6feff #2f004d #000000 0 1;
#X obj 1235 1126 vradio 16 1 1 7 empty empty Oktáva -9 -7 0 12 #feffc6 #000000 #000000 3;
#X listbox 1186 1239 6 0 0 0 - - - 24;
#X listbox 1193 1067 3 0 0 0 - - - 24;
#X obj 1243 1071 tgl 24 0 empty empty MUTE 0 -10 0 12 #ffc7c6 #000000 #000000 0 1;
#X obj 1708 2791 r allm;
#X obj 1708 2769 r allun;
#X obj 1618 2688 symbolproces, f 23;
#X obj 1703 2656 r oktMINUS;
#X obj 1701 2628 r oktPLUS;
#X obj 1693 2568 r tonPLUS;
#X obj 1697 2601 r tonMINUS;
#X listbox 1620 2614 3 0 0 0 - - - 24;
#X obj 1618 2554 loadbang;
#X obj 1706 2740 random 2;
#X obj 1710 2716 r randmut;
#X obj 1687 2539 r randomize!;
#X obj 1706 2511 r randoct;
#X obj 1314 1131 vsl 19 106 24 36 0 0 empty empty Tón -1 -9 0 12 #c6feff #2f004d #000000 0 1;
#X obj 1349 1128 vradio 16 1 1 7 empty empty Oktáva -9 -7 0 12 #feffc6 #000000 #000000 3;
#X listbox 1300 1241 6 0 0 0 - - - 24;
#X listbox 1307 1069 3 0 0 0 - - - 24;
#X obj 1357 1073 tgl 24 0 empty empty MUTE 0 -10 0 12 #ffc7c6 #000000 #000000 0 1;
#X obj 1920 2791 r allm;
#X obj 1920 2769 r allun;
#X obj 1830 2688 symbolproces, f 23;
#X obj 1915 2656 r oktMINUS;
#X obj 1913 2628 r oktPLUS;
#X obj 1905 2568 r tonPLUS;
#X obj 1909 2601 r tonMINUS;
#X listbox 1832 2614 3 0 0 0 - - - 24;
#X obj 1830 2554 loadbang;
#X obj 1918 2740 random 2;
#X obj 1922 2716 r randmut;
#X obj 1899 2539 r randomize!;
#X obj 1918 2511 r randoct;
#X obj 1296 391 vsl 19 106 24 36 0 0 empty empty Tón -1 -9 0 12 #c6feff #2f004d #000000 0 1;
#X obj 1331 388 vradio 16 1 1 7 empty empty Oktáva -9 -7 0 12 #feffc6 #000000 #000000 3;
#X listbox 1282 501 6 0 0 0 - - - 24;
#X listbox 1289 329 3 0 0 0 - - - 24;
#X obj 1339 333 tgl 24 0 empty empty MUTE 0 -10 0 12 #ffc7c6 #000000 #000000 0 1;
#X obj 1918 1710 r allm;
#X obj 1918 1688 r allun;
#X obj 1828 1607 symbolproces, f 23;
#X obj 1913 1575 r oktMINUS;
#X obj 1911 1547 r oktPLUS;
#X obj 1903 1487 r tonPLUS;
#X obj 1907 1520 r tonMINUS;
#X listbox 1830 1533 3 0 0 0 - - - 24;
#X obj 1828 1473 loadbang;
#X obj 1916 1659 random 2;
#X obj 1920 1635 r randmut;
#X obj 1897 1458 r randomize!;
#X obj 1916 1430 r randoct;
#X obj 1425 2590 symbol Ď;
#X obj 1619 2585 symbol Ť;
#X obj 1831 2585 symbol Ň;
#X obj 1829 1504 symbol Ó;
#X obj 300 392 vsl 19 106 24 36 0 0 empty empty Tón -1 -9 0 12 #c6feff #2f004d #000000 0 1;
#X obj 335 389 vradio 16 1 1 7 empty empty Oktáva -9 -7 0 12 #feffc6 #000000 #000000 3;
#X listbox 286 502 6 0 0 0 - - - 24;
#X listbox 293 330 3 0 0 0 - - - 24;
#X obj 343 334 tgl 24 0 empty empty MUTE 0 -10 0 12 #ffc7c6 #000000 #000000 0 1;
#X obj 214 1713 r allm;
#X obj 214 1691 r allun;
#X obj 124 1610 symbolproces, f 23;
#X obj 209 1578 r oktMINUS;
#X obj 207 1550 r oktPLUS;
#X obj 199 1490 r tonPLUS;
#X obj 203 1523 r tonMINUS;
#X listbox 126 1536 3 0 0 0 - - - 24;
#X obj 124 1476 loadbang;
#X obj 212 1662 random 2;
#X obj 216 1638 r randmut;
#X obj 193 1461 r randomize!;
#X obj 212 1433 r randoct;
#X obj 407 393 vsl 19 106 24 36 0 0 empty empty Tón -1 -9 0 12 #c6feff #2f004d #000000 0 1;
#X obj 442 390 vradio 16 1 1 7 empty empty Oktáva -9 -7 0 12 #feffc6 #000000 #000000 3;
#X listbox 393 503 6 0 0 0 - - - 24;
#X listbox 400 331 3 0 0 0 - - - 24;
#X obj 450 335 tgl 24 0 empty empty MUTE 0 -10 0 12 #ffc7c6 #000000 #000000 0 1;
#X obj 398 1713 r allm;
#X obj 398 1691 r allun;
#X obj 308 1610 symbolproces, f 23;
#X obj 393 1578 r oktMINUS;
#X obj 391 1550 r oktPLUS;
#X obj 383 1490 r tonPLUS;
#X obj 387 1523 r tonMINUS;
#X listbox 310 1536 3 0 0 0 - - - 24;
#X obj 308 1476 loadbang;
#X obj 396 1662 random 2;
#X obj 400 1638 r randmut;
#X obj 377 1461 r randomize!;
#X obj 396 1433 r randoct;
#X obj 510 393 vsl 19 106 24 36 0 0 empty empty Tón -1 -9 0 12 #c6feff #2f004d #000000 0 1;
#X obj 545 390 vradio 16 1 1 7 empty empty Oktáva -9 -7 0 12 #feffc6 #000000 #000000 3;
#X listbox 496 503 6 0 0 0 - - - 24;
#X listbox 503 331 3 0 0 0 - - - 24;
#X obj 553 335 tgl 24 0 empty empty MUTE 0 -10 0 12 #ffc7c6 #000000 #000000 0 1;
#X obj 584 1709 r allm;
#X obj 584 1687 r allun;
#X obj 494 1606 symbolproces, f 23;
#X obj 579 1574 r oktMINUS;
#X obj 577 1546 r oktPLUS;
#X obj 569 1486 r tonPLUS;
#X obj 573 1519 r tonMINUS;
#X listbox 496 1532 3 0 0 0 - - - 24;
#X obj 494 1472 loadbang;
#X obj 582 1658 random 2;
#X obj 586 1634 r randmut;
#X obj 563 1457 r randomize!;
#X obj 582 1429 r randoct;
#X obj 624 393 vsl 19 106 24 36 0 0 empty empty Tón -1 -9 0 12 #c6feff #2f004d #000000 0 1;
#X obj 659 390 vradio 16 1 1 7 empty empty Oktáva -9 -7 0 12 #feffc6 #000000 #000000 3;
#X listbox 610 503 6 0 0 0 - - - 24;
#X listbox 617 331 3 0 0 0 - - - 24;
#X obj 667 335 tgl 24 0 empty empty MUTE 0 -10 0 12 #ffc7c6 #000000 #000000 0 1;
#X obj 773 1706 r allm;
#X obj 773 1684 r allun;
#X obj 683 1603 symbolproces, f 23;
#X obj 768 1571 r oktMINUS;
#X obj 766 1543 r oktPLUS;
#X obj 758 1483 r tonPLUS;
#X obj 762 1516 r tonMINUS;
#X listbox 685 1529 3 0 0 0 - - - 24;
#X obj 683 1469 loadbang;
#X obj 771 1655 random 2;
#X obj 775 1631 r randmut;
#X obj 752 1454 r randomize!;
#X obj 771 1426 r randoct;
#X obj 125 1507 symbol Ě;
#X obj 309 1507 symbol Š;
#X obj 495 1503 symbol Č;
#X obj 684 1500 symbol Ř;
#X obj 737 391 vsl 19 106 24 36 0 0 empty empty Tón -1 -9 0 12 #c6feff #2f004d #000000 0 1;
#X obj 772 388 vradio 16 1 1 7 empty empty Oktáva -9 -7 0 12 #feffc6 #000000 #000000 3;
#X listbox 723 501 6 0 0 0 - - - 24;
#X listbox 730 329 3 0 0 0 - - - 24;
#X obj 780 333 tgl 24 0 empty empty MUTE 0 -10 0 12 #ffc7c6 #000000 #000000 0 1;
#X obj 973 1708 r allm;
#X obj 973 1686 r allun;
#X obj 883 1605 symbolproces, f 23;
#X obj 968 1573 r oktMINUS;
#X obj 966 1545 r oktPLUS;
#X obj 958 1485 r tonPLUS;
#X obj 962 1518 r tonMINUS;
#X listbox 885 1531 3 0 0 0 - - - 24;
#X obj 883 1471 loadbang;
#X obj 971 1657 random 2;
#X obj 975 1633 r randmut;
#X obj 952 1456 r randomize!;
#X obj 971 1428 r randoct;
#X obj 844 391 vsl 19 106 24 36 0 0 empty empty Tón -1 -9 0 12 #c6feff #2f004d #000000 0 1;
#X obj 879 388 vradio 16 1 1 7 empty empty Oktáva -9 -7 0 12 #feffc6 #000000 #000000 3;
#X listbox 830 501 6 0 0 0 - - - 24;
#X listbox 837 329 3 0 0 0 - - - 24;
#X obj 887 333 tgl 24 0 empty empty MUTE 0 -10 0 12 #ffc7c6 #000000 #000000 0 1;
#X obj 1171 1712 r allm;
#X obj 1171 1690 r allun;
#X obj 1081 1609 symbolproces, f 23;
#X obj 1166 1577 r oktMINUS;
#X obj 1164 1549 r oktPLUS;
#X obj 1156 1489 r tonPLUS;
#X obj 1160 1522 r tonMINUS;
#X listbox 1083 1535 3 0 0 0 - - - 24;
#X obj 1081 1475 loadbang;
#X obj 1169 1661 random 2;
#X obj 1173 1637 r randmut;
#X obj 1150 1460 r randomize!;
#X obj 1169 1432 r randoct;
#X obj 957 390 vsl 19 106 24 36 0 0 empty empty Tón -1 -9 0 12 #c6feff #2f004d #000000 0 1;
#X obj 992 387 vradio 16 1 1 7 empty empty Oktáva -9 -7 0 12 #feffc6 #000000 #000000 3;
#X listbox 943 500 6 0 0 0 - - - 24;
#X listbox 950 328 3 0 0 0 - - - 24;
#X obj 1000 332 tgl 24 0 empty empty MUTE 0 -10 0 12 #ffc7c6 #000000 #000000 0 1;
#X obj 1357 1711 r allm;
#X obj 1357 1689 r allun;
#X obj 1267 1608 symbolproces, f 23;
#X obj 1352 1576 r oktMINUS;
#X obj 1350 1548 r oktPLUS;
#X obj 1342 1488 r tonPLUS;
#X obj 1346 1521 r tonMINUS;
#X listbox 1269 1534 3 0 0 0 - - - 24;
#X obj 1267 1474 loadbang;
#X obj 1355 1660 random 2;
#X obj 1359 1636 r randmut;
#X obj 1336 1459 r randomize!;
#X obj 1355 1431 r randoct;
#X obj 1073 390 vsl 19 106 24 36 0 0 empty empty Tón -1 -9 0 12 #c6feff #2f004d #000000 0 1;
#X obj 1108 387 vradio 16 1 1 7 empty empty Oktáva -9 -7 0 12 #feffc6 #000000 #000000 3;
#X listbox 1059 500 6 0 0 0 - - - 24;
#X listbox 1066 328 3 0 0 0 - - - 24;
#X obj 1116 332 tgl 24 0 empty empty MUTE 0 -10 0 12 #ffc7c6 #000000 #000000 0 1;
#X obj 1538 1712 r allm;
#X obj 1538 1690 r allun;
#X obj 1448 1609 symbolproces, f 23;
#X obj 1533 1577 r oktMINUS;
#X obj 1531 1549 r oktPLUS;
#X obj 1523 1489 r tonPLUS;
#X obj 1527 1522 r tonMINUS;
#X listbox 1450 1535 3 0 0 0 - - - 24;
#X obj 1448 1475 loadbang;
#X obj 1536 1661 random 2;
#X obj 1540 1637 r randmut;
#X obj 1517 1460 r randomize!;
#X obj 1536 1432 r randoct;
#X obj 1183 390 vsl 19 106 24 36 0 0 empty empty Tón -1 -9 0 12 #c6feff #2f004d #000000 0 1;
#X obj 1218 387 vradio 16 1 1 7 empty empty Oktáva -9 -7 0 12 #feffc6 #000000 #000000 3;
#X listbox 1169 500 6 0 0 0 - - - 24;
#X listbox 1176 328 3 0 0 0 - - - 24;
#X obj 1226 332 tgl 24 0 empty empty MUTE 0 -10 0 12 #ffc7c6 #000000 #000000 0 1;
#X obj 1725 1714 r allm;
#X obj 1725 1692 r allun;
#X obj 1635 1611 symbolproces, f 23;
#X obj 1720 1579 r oktMINUS;
#X obj 1718 1551 r oktPLUS;
#X obj 1710 1491 r tonPLUS;
#X obj 1714 1524 r tonMINUS;
#X listbox 1637 1537 3 0 0 0 - - - 24;
#X obj 1635 1477 loadbang;
#X obj 1723 1663 random 2;
#X obj 1727 1639 r randmut;
#X obj 1704 1462 r randomize!;
#X obj 1723 1434 r randoct;
#X obj 1082 1506 symbol Ý;
#X obj 1268 1505 symbol Á;
#X obj 1449 1506 symbol Í;
#X obj 1636 1508 symbol É;
#X obj 1618 369 loadbang;
#X obj 884 1502 symbol Ž;
#X obj 1828 1961 sel 354 386;
#X obj 1643 2309 sel 575 574;
#X obj 1419 2662 sel 443 442;
#X obj 1613 2657 sel 565 564;
#X obj 1825 2657 sel 536 535;
#X obj 1823 1576 sel 379 347;
#X obj 118 1573 sel 454 455;
#X obj 303 1579 sel 561 560;
#X obj 489 1575 sel 441 440;
#X obj 678 1572 sel 553 552;
#X obj 878 1574 sel 590 589;
#X obj 1076 1578 sel 389 357;
#X obj 1262 1577 sel 361 329;
#X obj 1443 1578 sel 373 341;
#X obj 1630 1580 sel 369 337;
#X text 1121 110 Vybrat:;
#X text 465 113 Oktávy:;
#X text 631 111 Půltóny:;
#X text 4 226 kód znaku;
#X obj 159 389 vsl 19 106 24 36 0 0 empty empty Tón -1 -9 0 12 #c7c6ff #2f004d #000000 0 1;
#X obj 194 386 vradio 16 1 1 7 empty empty Oktáva -9 -7 0 12 #feffc6 #000000 #000000 3;
#X listbox 145 499 6 0 0 0 - - - 24;
#X obj 170 331 tgl 30 0 empty empty MUTE 0 -10 0 12 #9c00ff #000000 #000000 0 1;
#X obj -76 1616 symbolproces, f 23;
#X obj 9 1584 r oktMINUS;
#X obj 7 1556 r oktPLUS;
#X obj -1 1496 r tonPLUS;
#X obj 3 1529 r tonMINUS;
#X obj -7 1467 r randomize!;
#X obj 12 1439 r randoct;
#X obj -75 1582 sel 0;
#X text 162 290 MEZERA;
#X obj 1460 395 vsl 19 106 24 36 0 0 empty empty Tón -1 -9 0 12 #e3c6ff #2f004d #000000 0 1;
#X obj 1495 392 vradio 16 1 1 7 empty empty Oktáva -9 -7 0 12 #feffc6 #000000 #000000 3;
#X listbox 1446 505 6 0 0 0 - - - 24;
#X listbox 1453 333 3 0 0 0 - - - 24;
#X obj 1503 337 tgl 24 0 empty empty MUTE 0 -10 0 12 #ffc7c6 #000000 #000000 0 1;
#X obj 2121 1712 r allm;
#X obj 2121 1690 r allun;
#X obj 2031 1609 symbolproces, f 23;
#X obj 2116 1577 r oktMINUS;
#X obj 2114 1549 r oktPLUS;
#X obj 2106 1489 r tonPLUS;
#X obj 2110 1522 r tonMINUS;
#X listbox 2033 1535 3 0 0 0 - - - 24;
#X obj 2031 1475 loadbang;
#X obj 2119 1661 random 2;
#X obj 2123 1637 r randmut;
#X obj 2100 1460 r randomize!;
#X obj 2119 1432 r randoct;
#X obj 1456 894 vsl 19 106 24 36 0 0 empty empty Tón -1 -9 0 12 #e3c6ff #2f004d #000000 0 1;
#X obj 1491 891 vradio 16 1 1 7 empty empty Oktáva -9 -7 0 12 #feffc6 #000000 #000000 3;
#X listbox 1442 1004 6 0 0 0 - - - 24;
#X listbox 1449 832 3 0 0 0 - - - 24;
#X obj 1499 836 tgl 24 0 empty empty MUTE 0 -10 0 12 #ffc7c6 #000000 #000000 0 1;
#X obj 2139 2094 r allm;
#X obj 2139 2072 r allun;
#X obj 2049 1991 symbolproces, f 23;
#X obj 2134 1959 r oktMINUS;
#X obj 2132 1931 r oktPLUS;
#X obj 2124 1871 r tonPLUS;
#X obj 2128 1904 r tonMINUS;
#X listbox 2051 1917 3 0 0 0 - - - 24;
#X obj 2049 1857 loadbang;
#X obj 2137 2043 random 2;
#X obj 2141 2019 r randmut;
#X obj 2118 1842 r randomize!;
#X obj 2137 1814 r randoct;
#X obj 1459 644 vsl 19 106 24 36 0 0 empty empty Tón -1 -9 0 12 #e3c6ff #2f004d #000000 0 1;
#X obj 1494 641 vradio 16 1 1 7 empty empty Oktáva -9 -7 0 12 #feffc6 #000000 #000000 3;
#X listbox 1445 754 6 0 0 0 - - - 24;
#X listbox 1452 582 3 0 0 0 - - - 24;
#X obj 1502 586 tgl 24 0 empty empty MUTE 0 -10 0 12 #ffc7c6 #000000 #000000 0 1;
#X obj 2128 2442 r allm;
#X obj 2128 2420 r allun;
#X obj 2038 2339 symbolproces, f 23;
#X obj 2123 2307 r oktMINUS;
#X obj 2121 2279 r oktPLUS;
#X obj 2113 2219 r tonPLUS;
#X obj 2117 2252 r tonMINUS;
#X listbox 2040 2265 3 0 0 0 - - - 24;
#X obj 2038 2205 loadbang;
#X obj 2126 2391 random 2;
#X obj 2130 2367 r randmut;
#X obj 2107 2190 r randomize!;
#X obj 2126 2162 r randoct;
#X obj 2050 1888 symbol !;
#X obj 2055 1963 sel 33;
#X obj 2035 2308 sel 63;
#X obj 2039 2236 symbol ?;
#X obj 2032 1506 symbol .;
#X obj 2036 1578 sel 46;
#X connect 0 0 40 0;
#X connect 0 0 246 0;
#X connect 0 0 245 0;
#X connect 0 0 218 0;
#X connect 0 0 247 0;
#X connect 0 0 336 0;
#X connect 0 0 337 0;
#X connect 0 0 338 0;
#X connect 0 0 339 0;
#X connect 0 0 359 0;
#X connect 0 0 571 0;
#X connect 0 0 572 0;
#X connect 0 0 574 0;
#X connect 0 0 573 0;
#X connect 0 0 575 0;
#X connect 0 0 576 0;
#X connect 0 0 577 0;
#X connect 0 0 578 0;
#X connect 0 0 579 0;
#X connect 0 0 715 0;
#X connect 0 0 716 0;
#X connect 0 0 717 0;
#X connect 0 0 718 0;
#X connect 0 0 719 0;
#X connect 0 0 720 0;
#X connect 0 0 721 0;
#X connect 0 0 970 0;
#X connect 0 0 971 0;
#X connect 0 0 972 0;
#X connect 0 0 973 0;
#X connect 0 0 974 0;
#X connect 0 0 975 0;
#X connect 0 0 976 0;
#X connect 0 0 977 0;
#X connect 0 0 978 0;
#X connect 0 0 979 0;
#X connect 0 0 980 0;
#X connect 0 0 981 0;
#X connect 0 0 982 0;
#X connect 0 0 983 0;
#X connect 0 0 984 0;
#X connect 0 0 1000 0;
#X connect 0 0 1061 0;
#X connect 0 0 1057 0;
#X connect 0 0 1058 0;
#X connect 4 0 6 0;
#X connect 5 0 7 0;
#X connect 6 0 2 0;
#X connect 7 0 3 0;
#X connect 8 0 9 0;
#X connect 10 0 11 0;
#X connect 12 0 15 0;
#X connect 13 0 14 0;
#X connect 16 0 23 1;
#X connect 17 0 23 2;
#X connect 20 0 23 3;
#X connect 21 0 20 0;
#X connect 22 0 20 0;
#X connect 23 0 1 0;
#X connect 23 1 16 0;
#X connect 23 2 17 0;
#X connect 23 3 18 0;
#X connect 24 0 23 4;
#X connect 25 0 23 5;
#X connect 26 0 23 7;
#X connect 27 0 23 6;
#X connect 28 0 35 1;
#X connect 29 0 35 2;
#X connect 32 0 35 3;
#X connect 33 0 32 0;
#X connect 34 0 32 0;
#X connect 35 0 1 0;
#X connect 35 1 28 0;
#X connect 35 2 29 0;
#X connect 35 3 30 0;
#X connect 36 0 35 4;
#X connect 37 0 35 5;
#X connect 38 0 35 7;
#X connect 39 0 35 6;
#X connect 40 0 35 0;
#X connect 40 1 35 0;
#X connect 41 0 19 0;
#X connect 42 0 243 0;
#X connect 43 0 31 0;
#X connect 44 0 45 0;
#X connect 45 0 43 0;
#X connect 46 0 80 0;
#X connect 47 0 259 0;
#X connect 48 0 46 1;
#X connect 49 0 67 0;
#X connect 50 0 56 0;
#X connect 51 0 72 0;
#X connect 51 1 62 0;
#X connect 52 0 73 0;
#X connect 52 1 61 0;
#X connect 53 0 59 0;
#X connect 53 1 57 0;
#X connect 54 0 73 0;
#X connect 55 0 54 1;
#X connect 56 0 52 0;
#X connect 56 1 55 0;
#X connect 58 0 48 0;
#X connect 60 0 54 0;
#X connect 63 0 53 0;
#X connect 64 0 72 0;
#X connect 65 0 64 1;
#X connect 66 0 64 0;
#X connect 67 0 51 0;
#X connect 67 1 65 0;
#X connect 68 0 69 0;
#X connect 69 0 74 0;
#X connect 70 0 75 0;
#X connect 71 0 70 0;
#X connect 72 0 46 0;
#X connect 73 0 46 0;
#X connect 76 0 49 0;
#X connect 76 0 65 0;
#X connect 77 0 49 0;
#X connect 77 0 65 0;
#X connect 78 0 50 0;
#X connect 78 0 55 0;
#X connect 79 0 50 0;
#X connect 79 0 55 0;
#X connect 81 0 23 8;
#X connect 82 0 32 0;
#X connect 83 0 82 0;
#X connect 84 0 85 0;
#X connect 86 0 20 0;
#X connect 87 0 86 0;
#X connect 88 0 92 0;
#X connect 89 0 178 0;
#X connect 89 1 94 0;
#X connect 90 0 178 0;
#X connect 91 0 90 1;
#X connect 92 0 89 0;
#X connect 92 1 91 0;
#X connect 93 0 90 0;
#X connect 95 0 88 0;
#X connect 95 0 91 0;
#X connect 96 0 88 0;
#X connect 96 0 91 0;
#X connect 97 0 101 0;
#X connect 98 0 179 0;
#X connect 98 1 103 0;
#X connect 99 0 179 0;
#X connect 100 0 99 1;
#X connect 101 0 98 0;
#X connect 101 1 100 0;
#X connect 102 0 99 0;
#X connect 104 0 97 0;
#X connect 104 0 100 0;
#X connect 105 0 97 0;
#X connect 105 0 100 0;
#X connect 106 0 110 0;
#X connect 107 0 180 0;
#X connect 107 1 112 0;
#X connect 108 0 180 0;
#X connect 109 0 108 1;
#X connect 110 0 107 0;
#X connect 110 1 109 0;
#X connect 111 0 108 0;
#X connect 113 0 106 0;
#X connect 113 0 109 0;
#X connect 114 0 106 0;
#X connect 114 0 109 0;
#X connect 115 0 119 0;
#X connect 116 0 181 0;
#X connect 116 1 121 0;
#X connect 117 0 181 0;
#X connect 118 0 117 1;
#X connect 119 0 116 0;
#X connect 119 1 118 0;
#X connect 120 0 117 0;
#X connect 122 0 115 0;
#X connect 122 0 118 0;
#X connect 123 0 115 0;
#X connect 123 0 118 0;
#X connect 124 0 128 0;
#X connect 125 0 182 0;
#X connect 125 1 130 0;
#X connect 126 0 182 0;
#X connect 127 0 126 1;
#X connect 128 0 125 0;
#X connect 128 1 127 0;
#X connect 129 0 126 0;
#X connect 131 0 124 0;
#X connect 131 0 127 0;
#X connect 132 0 124 0;
#X connect 132 0 127 0;
#X connect 133 0 137 0;
#X connect 134 0 184 0;
#X connect 134 1 139 0;
#X connect 135 0 184 0;
#X connect 136 0 135 1;
#X connect 137 0 134 0;
#X connect 137 1 136 0;
#X connect 138 0 135 0;
#X connect 140 0 133 0;
#X connect 140 0 136 0;
#X connect 141 0 133 0;
#X connect 141 0 136 0;
#X connect 142 0 146 0;
#X connect 143 0 183 0;
#X connect 143 1 148 0;
#X connect 144 0 183 0;
#X connect 145 0 144 1;
#X connect 146 0 143 0;
#X connect 146 1 145 0;
#X connect 147 0 144 0;
#X connect 149 0 142 0;
#X connect 149 0 145 0;
#X connect 150 0 142 0;
#X connect 150 0 145 0;
#X connect 151 0 155 0;
#X connect 152 0 185 0;
#X connect 152 1 157 0;
#X connect 153 0 185 0;
#X connect 154 0 153 1;
#X connect 155 0 152 0;
#X connect 155 1 154 0;
#X connect 156 0 153 0;
#X connect 158 0 151 0;
#X connect 158 0 154 0;
#X connect 159 0 151 0;
#X connect 159 0 154 0;
#X connect 160 0 164 0;
#X connect 161 0 186 0;
#X connect 161 1 166 0;
#X connect 162 0 186 0;
#X connect 163 0 162 1;
#X connect 164 0 161 0;
#X connect 164 1 163 0;
#X connect 165 0 162 0;
#X connect 167 0 160 0;
#X connect 167 0 163 0;
#X connect 168 0 160 0;
#X connect 168 0 163 0;
#X connect 169 0 173 0;
#X connect 170 0 187 0;
#X connect 170 1 175 0;
#X connect 171 0 187 0;
#X connect 172 0 171 1;
#X connect 173 0 170 0;
#X connect 173 1 172 0;
#X connect 174 0 171 0;
#X connect 176 0 169 0;
#X connect 176 0 172 0;
#X connect 177 0 169 0;
#X connect 177 0 172 0;
#X connect 178 0 46 0;
#X connect 179 0 46 0;
#X connect 180 0 46 0;
#X connect 181 0 46 0;
#X connect 182 0 46 0;
#X connect 183 0 46 0;
#X connect 184 0 46 0;
#X connect 185 0 46 0;
#X connect 186 0 46 0;
#X connect 187 0 46 0;
#X connect 188 0 35 8;
#X connect 189 0 196 1;
#X connect 190 0 196 2;
#X connect 193 0 196 3;
#X connect 194 0 193 0;
#X connect 195 0 193 0;
#X connect 196 0 1 0;
#X connect 196 1 189 0;
#X connect 196 2 190 0;
#X connect 196 3 191 0;
#X connect 197 0 196 4;
#X connect 198 0 196 5;
#X connect 199 0 196 7;
#X connect 200 0 196 6;
#X connect 201 0 192 0;
#X connect 202 0 242 0;
#X connect 203 0 196 8;
#X connect 204 0 193 0;
#X connect 205 0 204 0;
#X connect 206 0 213 1;
#X connect 207 0 213 2;
#X connect 210 0 213 3;
#X connect 211 0 210 0;
#X connect 212 0 210 0;
#X connect 213 0 1 0;
#X connect 213 1 206 0;
#X connect 213 2 207 0;
#X connect 213 3 208 0;
#X connect 214 0 213 4;
#X connect 215 0 213 5;
#X connect 216 0 213 7;
#X connect 217 0 213 6;
#X connect 218 0 213 0;
#X connect 218 1 213 0;
#X connect 219 0 209 0;
#X connect 220 0 221 0;
#X connect 221 0 219 0;
#X connect 222 0 213 8;
#X connect 223 0 210 0;
#X connect 224 0 223 0;
#X connect 225 0 232 1;
#X connect 226 0 232 2;
#X connect 229 0 232 3;
#X connect 230 0 229 0;
#X connect 231 0 229 0;
#X connect 232 0 1 0;
#X connect 232 1 225 0;
#X connect 232 2 226 0;
#X connect 232 3 227 0;
#X connect 233 0 232 4;
#X connect 234 0 232 5;
#X connect 235 0 232 7;
#X connect 236 0 232 6;
#X connect 237 0 228 0;
#X connect 238 0 244 0;
#X connect 239 0 229 0;
#X connect 240 0 239 0;
#X connect 241 0 232 8;
#X connect 242 0 201 0;
#X connect 243 0 41 0;
#X connect 244 0 237 0;
#X connect 245 0 196 0;
#X connect 245 1 196 0;
#X connect 246 0 23 0;
#X connect 246 1 23 0;
#X connect 247 0 232 0;
#X connect 247 1 232 0;
#X connect 248 0 35 9;
#X connect 249 0 232 9;
#X connect 250 0 213 9;
#X connect 251 0 23 9;
#X connect 252 0 196 9;
#X connect 253 0 254 0;
#X connect 254 0 257 0;
#X connect 255 0 256 0;
#X connect 256 0 258 0;
#X connect 259 0 46 0;
#X connect 259 1 46 0;
#X connect 260 0 267 1;
#X connect 261 0 267 2;
#X connect 264 0 267 3;
#X connect 265 0 264 0;
#X connect 266 0 264 0;
#X connect 267 0 1 0;
#X connect 267 1 260 0;
#X connect 267 2 261 0;
#X connect 267 3 262 0;
#X connect 268 0 267 4;
#X connect 269 0 267 5;
#X connect 270 0 267 7;
#X connect 271 0 267 6;
#X connect 273 0 332 0;
#X connect 274 0 264 0;
#X connect 275 0 274 0;
#X connect 276 0 267 8;
#X connect 277 0 267 9;
#X connect 278 0 285 1;
#X connect 279 0 285 2;
#X connect 282 0 285 3;
#X connect 283 0 282 0;
#X connect 284 0 282 0;
#X connect 285 0 1 0;
#X connect 285 1 278 0;
#X connect 285 2 279 0;
#X connect 285 3 280 0;
#X connect 286 0 285 4;
#X connect 287 0 285 5;
#X connect 288 0 285 7;
#X connect 289 0 285 6;
#X connect 290 0 281 0;
#X connect 291 0 333 0;
#X connect 292 0 282 0;
#X connect 293 0 292 0;
#X connect 294 0 285 8;
#X connect 295 0 285 9;
#X connect 296 0 303 1;
#X connect 297 0 303 2;
#X connect 300 0 303 3;
#X connect 301 0 300 0;
#X connect 302 0 300 0;
#X connect 303 0 1 0;
#X connect 303 1 296 0;
#X connect 303 2 297 0;
#X connect 303 3 298 0;
#X connect 304 0 303 4;
#X connect 305 0 303 5;
#X connect 306 0 303 7;
#X connect 307 0 303 6;
#X connect 308 0 299 0;
#X connect 309 0 334 0;
#X connect 310 0 300 0;
#X connect 311 0 310 0;
#X connect 312 0 303 8;
#X connect 313 0 303 9;
#X connect 314 0 321 1;
#X connect 315 0 321 2;
#X connect 318 0 321 3;
#X connect 319 0 318 0;
#X connect 320 0 318 0;
#X connect 321 0 1 0;
#X connect 321 1 314 0;
#X connect 321 2 315 0;
#X connect 321 3 316 0;
#X connect 322 0 321 4;
#X connect 323 0 321 5;
#X connect 324 0 321 7;
#X connect 325 0 321 6;
#X connect 326 0 317 0;
#X connect 327 0 335 0;
#X connect 328 0 318 0;
#X connect 329 0 328 0;
#X connect 330 0 321 8;
#X connect 331 0 321 9;
#X connect 332 0 272 0;
#X connect 332 0 263 0;
#X connect 333 0 290 0;
#X connect 334 0 308 0;
#X connect 335 0 326 0;
#X connect 336 0 267 0;
#X connect 336 1 267 0;
#X connect 337 0 285 0;
#X connect 337 1 285 0;
#X connect 338 0 303 0;
#X connect 338 1 303 0;
#X connect 339 0 321 0;
#X connect 339 1 321 0;
#X connect 340 0 347 1;
#X connect 341 0 347 2;
#X connect 344 0 347 3;
#X connect 345 0 344 0;
#X connect 346 0 344 0;
#X connect 347 0 1 0;
#X connect 347 1 340 0;
#X connect 347 2 341 0;
#X connect 347 3 342 0;
#X connect 348 0 347 4;
#X connect 349 0 347 5;
#X connect 350 0 347 7;
#X connect 351 0 347 6;
#X connect 352 0 343 0;
#X connect 353 0 358 0;
#X connect 354 0 344 0;
#X connect 355 0 354 0;
#X connect 356 0 347 8;
#X connect 357 0 347 9;
#X connect 358 0 352 0;
#X connect 359 0 347 0;
#X connect 359 1 347 0;
#X connect 360 0 367 1;
#X connect 361 0 367 2;
#X connect 364 0 367 3;
#X connect 365 0 364 0;
#X connect 366 0 364 0;
#X connect 367 0 1 0;
#X connect 367 1 360 0;
#X connect 367 2 361 0;
#X connect 367 3 362 0;
#X connect 368 0 367 4;
#X connect 369 0 367 5;
#X connect 370 0 367 7;
#X connect 371 0 367 6;
#X connect 372 0 363 0;
#X connect 373 0 378 0;
#X connect 374 0 364 0;
#X connect 375 0 374 0;
#X connect 376 0 367 8;
#X connect 377 0 367 9;
#X connect 378 0 372 0;
#X connect 379 0 1 0;
#X connect 380 0 189 0;
#X connect 380 0 361 0;
#X connect 380 0 360 0;
#X connect 380 0 341 0;
#X connect 380 0 340 0;
#X connect 380 0 315 0;
#X connect 380 0 314 0;
#X connect 380 0 297 0;
#X connect 380 0 296 0;
#X connect 380 0 279 0;
#X connect 380 0 278 0;
#X connect 380 0 261 0;
#X connect 380 0 260 0;
#X connect 380 0 226 0;
#X connect 380 0 225 0;
#X connect 380 0 207 0;
#X connect 380 0 206 0;
#X connect 380 0 190 0;
#X connect 380 0 29 0;
#X connect 380 0 28 0;
#X connect 380 0 17 0;
#X connect 380 0 16 0;
#X connect 380 0 1038 0;
#X connect 380 0 1039 0;
#X connect 381 0 388 1;
#X connect 382 0 388 2;
#X connect 385 0 388 3;
#X connect 386 0 385 0;
#X connect 387 0 385 0;
#X connect 388 0 1 0;
#X connect 388 1 381 0;
#X connect 388 2 382 0;
#X connect 388 3 383 0;
#X connect 389 0 388 4;
#X connect 390 0 388 5;
#X connect 391 0 388 7;
#X connect 392 0 388 6;
#X connect 393 0 384 0;
#X connect 394 0 561 0;
#X connect 395 0 385 0;
#X connect 396 0 395 0;
#X connect 397 0 388 8;
#X connect 398 0 388 9;
#X connect 399 0 406 1;
#X connect 400 0 406 2;
#X connect 403 0 406 3;
#X connect 404 0 403 0;
#X connect 405 0 403 0;
#X connect 406 0 1 0;
#X connect 406 1 399 0;
#X connect 406 2 400 0;
#X connect 406 3 401 0;
#X connect 407 0 406 4;
#X connect 408 0 406 5;
#X connect 409 0 406 7;
#X connect 410 0 406 6;
#X connect 411 0 402 0;
#X connect 412 0 562 0;
#X connect 413 0 403 0;
#X connect 414 0 413 0;
#X connect 415 0 406 8;
#X connect 416 0 406 9;
#X connect 417 0 424 1;
#X connect 418 0 424 2;
#X connect 421 0 424 3;
#X connect 422 0 421 0;
#X connect 423 0 421 0;
#X connect 424 0 1 0;
#X connect 424 1 417 0;
#X connect 424 2 418 0;
#X connect 424 3 419 0;
#X connect 425 0 424 4;
#X connect 426 0 424 5;
#X connect 427 0 424 7;
#X connect 428 0 424 6;
#X connect 429 0 420 0;
#X connect 430 0 563 0;
#X connect 431 0 421 0;
#X connect 432 0 431 0;
#X connect 433 0 424 8;
#X connect 434 0 424 9;
#X connect 435 0 442 1;
#X connect 436 0 442 2;
#X connect 439 0 442 3;
#X connect 440 0 439 0;
#X connect 441 0 439 0;
#X connect 442 0 1 0;
#X connect 442 1 435 0;
#X connect 442 2 436 0;
#X connect 442 3 437 0;
#X connect 443 0 442 4;
#X connect 444 0 442 5;
#X connect 445 0 442 7;
#X connect 446 0 442 6;
#X connect 447 0 438 0;
#X connect 448 0 564 0;
#X connect 449 0 439 0;
#X connect 450 0 449 0;
#X connect 451 0 442 8;
#X connect 452 0 442 9;
#X connect 453 0 460 1;
#X connect 454 0 460 2;
#X connect 457 0 460 3;
#X connect 458 0 457 0;
#X connect 459 0 457 0;
#X connect 460 0 1 0;
#X connect 460 1 453 0;
#X connect 460 2 454 0;
#X connect 460 3 455 0;
#X connect 461 0 460 4;
#X connect 462 0 460 5;
#X connect 463 0 460 7;
#X connect 464 0 460 6;
#X connect 465 0 456 0;
#X connect 466 0 565 0;
#X connect 467 0 457 0;
#X connect 468 0 467 0;
#X connect 469 0 460 8;
#X connect 470 0 460 9;
#X connect 471 0 478 1;
#X connect 472 0 478 2;
#X connect 475 0 478 3;
#X connect 476 0 475 0;
#X connect 477 0 475 0;
#X connect 478 0 1 0;
#X connect 478 1 471 0;
#X connect 478 2 472 0;
#X connect 478 3 473 0;
#X connect 479 0 478 4;
#X connect 480 0 478 5;
#X connect 481 0 478 7;
#X connect 482 0 478 6;
#X connect 483 0 474 0;
#X connect 484 0 566 0;
#X connect 485 0 475 0;
#X connect 486 0 485 0;
#X connect 487 0 478 8;
#X connect 488 0 478 9;
#X connect 489 0 496 1;
#X connect 490 0 496 2;
#X connect 493 0 496 3;
#X connect 494 0 493 0;
#X connect 495 0 493 0;
#X connect 496 0 1 0;
#X connect 496 1 489 0;
#X connect 496 2 490 0;
#X connect 496 3 491 0;
#X connect 497 0 496 4;
#X connect 498 0 496 5;
#X connect 499 0 496 7;
#X connect 500 0 496 6;
#X connect 501 0 492 0;
#X connect 502 0 567 0;
#X connect 503 0 493 0;
#X connect 504 0 503 0;
#X connect 505 0 496 8;
#X connect 506 0 496 9;
#X connect 507 0 514 1;
#X connect 508 0 514 2;
#X connect 511 0 514 3;
#X connect 512 0 511 0;
#X connect 513 0 511 0;
#X connect 514 0 1 0;
#X connect 514 1 507 0;
#X connect 514 2 508 0;
#X connect 514 3 509 0;
#X connect 515 0 514 4;
#X connect 516 0 514 5;
#X connect 517 0 514 7;
#X connect 518 0 514 6;
#X connect 519 0 510 0;
#X connect 520 0 568 0;
#X connect 521 0 511 0;
#X connect 522 0 521 0;
#X connect 523 0 514 8;
#X connect 524 0 514 9;
#X connect 525 0 532 1;
#X connect 526 0 532 2;
#X connect 529 0 532 3;
#X connect 530 0 529 0;
#X connect 531 0 529 0;
#X connect 532 0 1 0;
#X connect 532 1 525 0;
#X connect 532 2 526 0;
#X connect 532 3 527 0;
#X connect 533 0 532 4;
#X connect 534 0 532 5;
#X connect 535 0 532 7;
#X connect 536 0 532 6;
#X connect 537 0 528 0;
#X connect 538 0 569 0;
#X connect 539 0 529 0;
#X connect 540 0 539 0;
#X connect 541 0 532 8;
#X connect 542 0 532 9;
#X connect 543 0 550 1;
#X connect 544 0 550 2;
#X connect 547 0 550 3;
#X connect 548 0 547 0;
#X connect 549 0 547 0;
#X connect 550 0 1 0;
#X connect 550 1 543 0;
#X connect 550 2 544 0;
#X connect 550 3 545 0;
#X connect 551 0 550 4;
#X connect 552 0 550 5;
#X connect 553 0 550 7;
#X connect 554 0 550 6;
#X connect 555 0 546 0;
#X connect 556 0 570 0;
#X connect 557 0 547 0;
#X connect 558 0 557 0;
#X connect 559 0 550 8;
#X connect 560 0 550 9;
#X connect 561 0 393 0;
#X connect 562 0 411 0;
#X connect 563 0 429 0;
#X connect 564 0 447 0;
#X connect 565 0 465 0;
#X connect 566 0 483 0;
#X connect 567 0 501 0;
#X connect 568 0 519 0;
#X connect 569 0 537 0;
#X connect 570 0 555 0;
#X connect 571 0 388 0;
#X connect 571 1 388 0;
#X connect 572 0 406 0;
#X connect 572 1 406 0;
#X connect 573 0 424 0;
#X connect 573 1 424 0;
#X connect 574 0 442 0;
#X connect 574 1 442 0;
#X connect 575 0 460 0;
#X connect 575 1 460 0;
#X connect 576 0 478 0;
#X connect 576 1 478 0;
#X connect 577 0 496 0;
#X connect 577 1 496 0;
#X connect 578 0 514 0;
#X connect 578 1 514 0;
#X connect 579 0 532 0;
#X connect 579 1 532 0;
#X connect 580 0 587 1;
#X connect 581 0 587 2;
#X connect 584 0 587 3;
#X connect 585 0 584 0;
#X connect 586 0 584 0;
#X connect 587 0 1 0;
#X connect 587 1 580 0;
#X connect 587 2 581 0;
#X connect 587 3 582 0;
#X connect 588 0 587 4;
#X connect 589 0 587 5;
#X connect 590 0 587 7;
#X connect 591 0 587 6;
#X connect 592 0 583 0;
#X connect 593 0 706 0;
#X connect 594 0 584 0;
#X connect 595 0 594 0;
#X connect 596 0 587 8;
#X connect 597 0 587 9;
#X connect 598 0 605 1;
#X connect 599 0 605 2;
#X connect 602 0 605 3;
#X connect 603 0 602 0;
#X connect 604 0 602 0;
#X connect 605 0 1 0;
#X connect 605 1 598 0;
#X connect 605 2 599 0;
#X connect 605 3 600 0;
#X connect 606 0 605 4;
#X connect 607 0 605 5;
#X connect 608 0 605 7;
#X connect 609 0 605 6;
#X connect 610 0 601 0;
#X connect 611 0 707 0;
#X connect 612 0 602 0;
#X connect 613 0 612 0;
#X connect 614 0 605 8;
#X connect 615 0 605 9;
#X connect 616 0 623 1;
#X connect 617 0 623 2;
#X connect 620 0 623 3;
#X connect 621 0 620 0;
#X connect 622 0 620 0;
#X connect 623 0 1 0;
#X connect 623 1 616 0;
#X connect 623 2 617 0;
#X connect 623 3 618 0;
#X connect 624 0 623 4;
#X connect 625 0 623 5;
#X connect 626 0 623 7;
#X connect 627 0 623 6;
#X connect 628 0 619 0;
#X connect 629 0 708 0;
#X connect 630 0 620 0;
#X connect 631 0 630 0;
#X connect 632 0 623 8;
#X connect 633 0 623 9;
#X connect 634 0 641 1;
#X connect 635 0 641 2;
#X connect 638 0 641 3;
#X connect 639 0 638 0;
#X connect 640 0 638 0;
#X connect 641 0 1 0;
#X connect 641 1 634 0;
#X connect 641 2 635 0;
#X connect 641 3 636 0;
#X connect 642 0 641 4;
#X connect 643 0 641 5;
#X connect 644 0 641 7;
#X connect 645 0 641 6;
#X connect 646 0 637 0;
#X connect 647 0 709 0;
#X connect 648 0 638 0;
#X connect 649 0 648 0;
#X connect 650 0 641 8;
#X connect 651 0 641 9;
#X connect 652 0 659 1;
#X connect 653 0 659 2;
#X connect 656 0 659 3;
#X connect 657 0 656 0;
#X connect 658 0 656 0;
#X connect 659 0 1 0;
#X connect 659 1 652 0;
#X connect 659 2 653 0;
#X connect 659 3 654 0;
#X connect 660 0 659 4;
#X connect 661 0 659 5;
#X connect 662 0 659 7;
#X connect 663 0 659 6;
#X connect 664 0 655 0;
#X connect 665 0 710 0;
#X connect 666 0 656 0;
#X connect 667 0 666 0;
#X connect 668 0 659 8;
#X connect 669 0 659 9;
#X connect 670 0 677 1;
#X connect 671 0 677 2;
#X connect 674 0 677 3;
#X connect 675 0 674 0;
#X connect 676 0 674 0;
#X connect 677 0 1 0;
#X connect 677 1 670 0;
#X connect 677 2 671 0;
#X connect 677 3 672 0;
#X connect 678 0 677 4;
#X connect 679 0 677 5;
#X connect 680 0 677 7;
#X connect 681 0 677 6;
#X connect 682 0 673 0;
#X connect 683 0 711 0;
#X connect 684 0 674 0;
#X connect 685 0 684 0;
#X connect 686 0 677 8;
#X connect 687 0 677 9;
#X connect 688 0 695 1;
#X connect 689 0 695 2;
#X connect 692 0 695 3;
#X connect 693 0 692 0;
#X connect 694 0 692 0;
#X connect 695 0 1 0;
#X connect 695 1 688 0;
#X connect 695 2 689 0;
#X connect 695 3 690 0;
#X connect 696 0 695 4;
#X connect 697 0 695 5;
#X connect 698 0 695 7;
#X connect 699 0 695 6;
#X connect 700 0 691 0;
#X connect 701 0 712 0;
#X connect 702 0 692 0;
#X connect 703 0 702 0;
#X connect 704 0 695 8;
#X connect 705 0 695 9;
#X connect 706 0 592 0;
#X connect 707 0 610 0;
#X connect 708 0 628 0;
#X connect 709 0 646 0;
#X connect 710 0 664 0;
#X connect 711 0 682 0;
#X connect 712 0 700 0;
#X connect 713 0 544 0;
#X connect 713 0 543 0;
#X connect 713 0 526 0;
#X connect 713 0 525 0;
#X connect 713 0 508 0;
#X connect 713 0 507 0;
#X connect 713 0 490 0;
#X connect 713 0 489 0;
#X connect 713 0 472 0;
#X connect 713 0 471 0;
#X connect 713 0 454 0;
#X connect 713 0 453 0;
#X connect 713 0 436 0;
#X connect 713 0 435 0;
#X connect 713 0 418 0;
#X connect 713 0 417 0;
#X connect 713 0 400 0;
#X connect 713 0 399 0;
#X connect 713 0 382 0;
#X connect 713 0 381 0;
#X connect 713 0 1020 0;
#X connect 713 0 1021 0;
#X connect 714 0 688 0;
#X connect 714 0 689 0;
#X connect 714 0 671 0;
#X connect 714 0 670 0;
#X connect 714 0 653 0;
#X connect 714 0 652 0;
#X connect 714 0 635 0;
#X connect 714 0 634 0;
#X connect 714 0 617 0;
#X connect 714 0 616 0;
#X connect 714 0 599 0;
#X connect 714 0 598 0;
#X connect 714 0 581 0;
#X connect 714 0 580 0;
#X connect 714 0 758 0;
#X connect 714 0 759 0;
#X connect 714 0 741 0;
#X connect 714 0 740 0;
#X connect 714 0 723 0;
#X connect 714 0 722 0;
#X connect 715 0 587 0;
#X connect 715 1 587 0;
#X connect 716 0 605 0;
#X connect 716 1 605 0;
#X connect 717 0 623 0;
#X connect 717 1 623 0;
#X connect 718 0 641 0;
#X connect 718 1 641 0;
#X connect 719 0 659 0;
#X connect 719 1 659 0;
#X connect 720 0 677 0;
#X connect 720 1 677 0;
#X connect 721 0 695 0;
#X connect 721 1 695 0;
#X connect 722 0 729 1;
#X connect 723 0 729 2;
#X connect 726 0 729 3;
#X connect 727 0 726 0;
#X connect 728 0 726 0;
#X connect 729 0 1 0;
#X connect 729 1 722 0;
#X connect 729 2 723 0;
#X connect 729 3 724 0;
#X connect 730 0 729 4;
#X connect 731 0 729 5;
#X connect 732 0 729 7;
#X connect 733 0 729 6;
#X connect 734 0 725 0;
#X connect 735 0 794 0;
#X connect 736 0 726 0;
#X connect 737 0 736 0;
#X connect 738 0 729 8;
#X connect 739 0 729 9;
#X connect 740 0 747 1;
#X connect 741 0 747 2;
#X connect 744 0 747 3;
#X connect 745 0 744 0;
#X connect 746 0 744 0;
#X connect 747 0 1 0;
#X connect 747 1 740 0;
#X connect 747 2 741 0;
#X connect 747 3 742 0;
#X connect 748 0 747 4;
#X connect 749 0 747 5;
#X connect 750 0 747 7;
#X connect 751 0 747 6;
#X connect 752 0 743 0;
#X connect 753 0 795 0;
#X connect 754 0 744 0;
#X connect 755 0 754 0;
#X connect 756 0 747 8;
#X connect 757 0 747 9;
#X connect 758 0 765 1;
#X connect 759 0 765 2;
#X connect 762 0 765 3;
#X connect 763 0 762 0;
#X connect 764 0 762 0;
#X connect 765 0 1 0;
#X connect 765 1 758 0;
#X connect 765 2 759 0;
#X connect 765 3 760 0;
#X connect 766 0 765 4;
#X connect 767 0 765 5;
#X connect 768 0 765 7;
#X connect 769 0 765 6;
#X connect 770 0 761 0;
#X connect 771 0 796 0;
#X connect 772 0 762 0;
#X connect 773 0 772 0;
#X connect 774 0 765 8;
#X connect 775 0 765 9;
#X connect 776 0 783 1;
#X connect 777 0 783 2;
#X connect 780 0 783 3;
#X connect 781 0 780 0;
#X connect 782 0 780 0;
#X connect 783 0 1 0;
#X connect 783 1 776 0;
#X connect 783 2 777 0;
#X connect 783 3 778 0;
#X connect 784 0 783 4;
#X connect 785 0 783 5;
#X connect 786 0 783 7;
#X connect 787 0 783 6;
#X connect 788 0 779 0;
#X connect 789 0 797 0;
#X connect 790 0 780 0;
#X connect 791 0 790 0;
#X connect 792 0 783 8;
#X connect 793 0 783 9;
#X connect 794 0 734 0;
#X connect 795 0 752 0;
#X connect 796 0 770 0;
#X connect 797 0 788 0;
#X connect 798 0 805 1;
#X connect 799 0 805 2;
#X connect 802 0 805 3;
#X connect 803 0 802 0;
#X connect 804 0 802 0;
#X connect 805 0 1 0;
#X connect 805 1 798 0;
#X connect 805 2 799 0;
#X connect 805 3 800 0;
#X connect 806 0 805 4;
#X connect 807 0 805 5;
#X connect 808 0 805 7;
#X connect 809 0 805 6;
#X connect 810 0 801 0;
#X connect 811 0 870 0;
#X connect 812 0 802 0;
#X connect 813 0 812 0;
#X connect 814 0 805 8;
#X connect 815 0 805 9;
#X connect 816 0 823 1;
#X connect 817 0 823 2;
#X connect 820 0 823 3;
#X connect 821 0 820 0;
#X connect 822 0 820 0;
#X connect 823 0 1 0;
#X connect 823 1 816 0;
#X connect 823 2 817 0;
#X connect 823 3 818 0;
#X connect 824 0 823 4;
#X connect 825 0 823 5;
#X connect 826 0 823 7;
#X connect 827 0 823 6;
#X connect 828 0 819 0;
#X connect 829 0 871 0;
#X connect 830 0 820 0;
#X connect 831 0 830 0;
#X connect 832 0 823 8;
#X connect 833 0 823 9;
#X connect 834 0 841 1;
#X connect 835 0 841 2;
#X connect 838 0 841 3;
#X connect 839 0 838 0;
#X connect 840 0 838 0;
#X connect 841 0 1 0;
#X connect 841 1 834 0;
#X connect 841 2 835 0;
#X connect 841 3 836 0;
#X connect 842 0 841 4;
#X connect 843 0 841 5;
#X connect 844 0 841 7;
#X connect 845 0 841 6;
#X connect 846 0 837 0;
#X connect 847 0 872 0;
#X connect 848 0 838 0;
#X connect 849 0 848 0;
#X connect 850 0 841 8;
#X connect 851 0 841 9;
#X connect 852 0 859 1;
#X connect 853 0 859 2;
#X connect 856 0 859 3;
#X connect 857 0 856 0;
#X connect 858 0 856 0;
#X connect 859 0 1 0;
#X connect 859 1 852 0;
#X connect 859 2 853 0;
#X connect 859 3 854 0;
#X connect 860 0 859 4;
#X connect 861 0 859 5;
#X connect 862 0 859 7;
#X connect 863 0 859 6;
#X connect 864 0 855 0;
#X connect 865 0 873 0;
#X connect 866 0 856 0;
#X connect 867 0 866 0;
#X connect 868 0 859 8;
#X connect 869 0 859 9;
#X connect 870 0 810 0;
#X connect 871 0 828 0;
#X connect 872 0 846 0;
#X connect 873 0 864 0;
#X connect 874 0 881 1;
#X connect 875 0 881 2;
#X connect 878 0 881 3;
#X connect 879 0 878 0;
#X connect 880 0 878 0;
#X connect 881 0 1 0;
#X connect 881 1 874 0;
#X connect 881 2 875 0;
#X connect 881 3 876 0;
#X connect 882 0 881 4;
#X connect 883 0 881 5;
#X connect 884 0 881 7;
#X connect 885 0 881 6;
#X connect 886 0 877 0;
#X connect 887 0 969 0;
#X connect 888 0 878 0;
#X connect 889 0 888 0;
#X connect 890 0 881 8;
#X connect 891 0 881 9;
#X connect 892 0 899 1;
#X connect 893 0 899 2;
#X connect 896 0 899 3;
#X connect 897 0 896 0;
#X connect 898 0 896 0;
#X connect 899 0 1 0;
#X connect 899 1 892 0;
#X connect 899 2 893 0;
#X connect 899 3 894 0;
#X connect 900 0 899 4;
#X connect 901 0 899 5;
#X connect 902 0 899 7;
#X connect 903 0 899 6;
#X connect 904 0 895 0;
#X connect 905 0 964 0;
#X connect 906 0 896 0;
#X connect 907 0 906 0;
#X connect 908 0 899 8;
#X connect 909 0 899 9;
#X connect 910 0 917 1;
#X connect 911 0 917 2;
#X connect 914 0 917 3;
#X connect 915 0 914 0;
#X connect 916 0 914 0;
#X connect 917 0 1 0;
#X connect 917 1 910 0;
#X connect 917 2 911 0;
#X connect 917 3 912 0;
#X connect 918 0 917 4;
#X connect 919 0 917 5;
#X connect 920 0 917 7;
#X connect 921 0 917 6;
#X connect 922 0 913 0;
#X connect 923 0 965 0;
#X connect 924 0 914 0;
#X connect 925 0 924 0;
#X connect 926 0 917 8;
#X connect 927 0 917 9;
#X connect 928 0 935 1;
#X connect 929 0 935 2;
#X connect 932 0 935 3;
#X connect 933 0 932 0;
#X connect 934 0 932 0;
#X connect 935 0 1 0;
#X connect 935 1 928 0;
#X connect 935 2 929 0;
#X connect 935 3 930 0;
#X connect 936 0 935 4;
#X connect 937 0 935 5;
#X connect 938 0 935 7;
#X connect 939 0 935 6;
#X connect 940 0 931 0;
#X connect 941 0 966 0;
#X connect 942 0 932 0;
#X connect 943 0 942 0;
#X connect 944 0 935 8;
#X connect 945 0 935 9;
#X connect 946 0 953 1;
#X connect 947 0 953 2;
#X connect 950 0 953 3;
#X connect 951 0 950 0;
#X connect 952 0 950 0;
#X connect 953 0 1 0;
#X connect 953 1 946 0;
#X connect 953 2 947 0;
#X connect 953 3 948 0;
#X connect 954 0 953 4;
#X connect 955 0 953 5;
#X connect 956 0 953 7;
#X connect 957 0 953 6;
#X connect 958 0 949 0;
#X connect 959 0 967 0;
#X connect 960 0 950 0;
#X connect 961 0 960 0;
#X connect 962 0 953 8;
#X connect 963 0 953 9;
#X connect 964 0 904 0;
#X connect 965 0 922 0;
#X connect 966 0 940 0;
#X connect 967 0 958 0;
#X connect 968 0 947 0;
#X connect 968 0 946 0;
#X connect 968 0 929 0;
#X connect 968 0 928 0;
#X connect 968 0 911 0;
#X connect 968 0 910 0;
#X connect 968 0 893 0;
#X connect 968 0 892 0;
#X connect 968 0 875 0;
#X connect 968 0 874 0;
#X connect 968 0 853 0;
#X connect 968 0 852 0;
#X connect 968 0 835 0;
#X connect 968 0 834 0;
#X connect 968 0 817 0;
#X connect 968 0 816 0;
#X connect 968 0 799 0;
#X connect 968 0 798 0;
#X connect 968 0 776 0;
#X connect 968 0 777 0;
#X connect 968 0 989 0;
#X connect 968 0 990 0;
#X connect 968 0 992 0;
#X connect 968 0 1002 0;
#X connect 968 0 1003 0;
#X connect 969 0 886 0;
#X connect 970 0 367 0;
#X connect 970 1 367 0;
#X connect 971 0 550 0;
#X connect 971 1 550 0;
#X connect 972 0 729 0;
#X connect 972 1 729 0;
#X connect 973 0 747 0;
#X connect 973 1 747 0;
#X connect 974 0 765 0;
#X connect 974 1 765 0;
#X connect 975 0 783 0;
#X connect 975 1 783 0;
#X connect 976 0 805 0;
#X connect 976 1 805 0;
#X connect 977 0 823 0;
#X connect 977 1 823 0;
#X connect 978 0 841 0;
#X connect 978 1 841 0;
#X connect 979 0 859 0;
#X connect 979 1 859 0;
#X connect 980 0 881 0;
#X connect 980 1 881 0;
#X connect 981 0 899 0;
#X connect 981 1 899 0;
#X connect 982 0 917 0;
#X connect 982 1 917 0;
#X connect 983 0 935 0;
#X connect 983 1 935 0;
#X connect 984 0 953 0;
#X connect 984 1 953 0;
#X connect 989 0 993 1;
#X connect 990 0 993 2;
#X connect 992 0 993 3;
#X connect 993 0 1 0;
#X connect 993 1 989 0;
#X connect 993 2 990 0;
#X connect 993 3 991 0;
#X connect 994 0 993 4;
#X connect 995 0 993 5;
#X connect 996 0 993 7;
#X connect 997 0 993 6;
#X connect 998 0 993 8;
#X connect 999 0 993 9;
#X connect 1000 0 993 0;
#X connect 1002 0 1009 1;
#X connect 1003 0 1009 2;
#X connect 1006 0 1009 3;
#X connect 1007 0 1006 0;
#X connect 1008 0 1006 0;
#X connect 1009 0 1 0;
#X connect 1009 1 1002 0;
#X connect 1009 2 1003 0;
#X connect 1009 3 1004 0;
#X connect 1010 0 1009 4;
#X connect 1011 0 1009 5;
#X connect 1012 0 1009 7;
#X connect 1013 0 1009 6;
#X connect 1014 0 1005 0;
#X connect 1015 0 1060 0;
#X connect 1016 0 1006 0;
#X connect 1017 0 1016 0;
#X connect 1018 0 1009 8;
#X connect 1019 0 1009 9;
#X connect 1020 0 1027 1;
#X connect 1021 0 1027 2;
#X connect 1024 0 1027 3;
#X connect 1025 0 1024 0;
#X connect 1026 0 1024 0;
#X connect 1027 0 1 0;
#X connect 1027 1 1020 0;
#X connect 1027 2 1021 0;
#X connect 1027 3 1022 0;
#X connect 1028 0 1027 4;
#X connect 1029 0 1027 5;
#X connect 1030 0 1027 7;
#X connect 1031 0 1027 6;
#X connect 1032 0 1023 0;
#X connect 1033 0 1056 0;
#X connect 1034 0 1024 0;
#X connect 1035 0 1034 0;
#X connect 1036 0 1027 8;
#X connect 1037 0 1027 9;
#X connect 1038 0 1045 1;
#X connect 1039 0 1045 2;
#X connect 1042 0 1045 3;
#X connect 1043 0 1042 0;
#X connect 1044 0 1042 0;
#X connect 1045 0 1 0;
#X connect 1045 1 1038 0;
#X connect 1045 2 1039 0;
#X connect 1045 3 1040 0;
#X connect 1046 0 1045 4;
#X connect 1047 0 1045 5;
#X connect 1048 0 1045 7;
#X connect 1049 0 1045 6;
#X connect 1050 0 1041 0;
#X connect 1051 0 1059 0;
#X connect 1052 0 1042 0;
#X connect 1053 0 1052 0;
#X connect 1054 0 1045 8;
#X connect 1055 0 1045 9;
#X connect 1056 0 1032 0;
#X connect 1057 0 1027 0;
#X connect 1058 0 1045 0;
#X connect 1059 0 1050 0;
#X connect 1060 0 1014 0;
#X connect 1061 0 1009 0;
#X coords 0 0 1 1 1450 1200 2 100 100;
