#N canvas 301 1021 1920 997 12;
#X obj 28 50 inlet;
#X obj 79 50 inlet;
#X obj 129 50 inlet;
#X obj 178 50 inlet;
#X obj 306 51 inlet;
#X obj 406 51 inlet;
#X obj 522 50 inlet;
#X obj 594 49 inlet;
#X obj 181 872 outlet;
#X obj 593 894 outlet;
#X obj 646 893 outlet;
#X obj 1272 897 outlet;
#X obj 28 620 bng 19 250 50 0 empty empty empty 0 -10 0 12 #fcfcfc #000000 #000000;
#X obj 28 747 int 60;
#X obj 79 557 int 60;
#X floatatom 104 651 5 0 0 0 - - - 0;
#X floatatom 154 510 5 0 0 0 - - - 0;
#X obj 136 611 +;
#X obj 154 536 * -12;
#X obj 275 712 * -1;
#X obj 275 685 - 1;
#X obj 1140 699 int 36;
#X floatatom 354 352 5 0 0 0 - - - 0;
#X obj 325 384 + 1;
#X obj 307 447 int;
#X floatatom 318 533 5 0 0 0 - - - 0;
#X obj 406 447 int;
#X floatatom 406 534 5 0 0 0 - - - 0;
#X obj 307 503 moses 1;
#X floatatom 612 140 5 0 0 0 - - - 0;
#X obj 612 169 + 1, f 4;
#X obj 594 210 int;
#X floatatom 594 272 5 0 0 0 - - - 0;
#X obj 612 111 - 24;
#X obj 594 239 % 12;
#X obj 666 313 + 24;
#X obj 586 311 sel 0;
#X floatatom 540 139 5 0 0 0 - - - 0;
#X obj 522 209 int;
#X floatatom 522 273 5 0 0 0 - - - 0;
#X obj 540 110 - 24;
#X obj 522 240 % 12;
#X obj 532 310 + 24;
#X obj 540 165 + 11;
#X obj 467 311 sel 11;
#X obj 1144 804 symbol C;
#X obj 1219 804 symbol C#/Db;
#X obj 1319 803 symbol D;
#X obj 1391 803 symbol D#/Eb;
#X obj 1492 801 symbol E;
#X obj 1563 802 symbol F;
#X obj 1643 804 symbol F#/Gb;
#X obj 1749 803 symbol G;
#X obj 1824 804 symbol G#/Ab;
#X obj 1926 804 symbol A;
#X obj 2002 805 symbol A#/Bb;
#X obj 2104 804 symbol B;
#X obj 1140 728 sel 24 25 26 27 28 29 30 31 32 33 34 35 36;
#X obj 424 387 + 6;
#X obj 406 504 moses 6;
#X obj 406 474 % 7;
#X obj 307 473 % 7;
#X obj 154 483 - 6;
#X obj 154 563 int;
#X obj 129 483 bng 19 250 50 0 empty empty empty 0 -10 0 12 #fcfcfc #000000 #000000;
#X text 1230 694 nota odpovídající tónu;
#X obj 992 48 inlet;
#X floatatom 1270 212 5 0 0 0 - - - 0;
#X obj 1285 257 random 12;
#X floatatom 1293 297 5 0 0 0 - - - 0;
#X obj 1223 229 bng 19 250 50 0 empty empty empty 0 -10 0 12 #fcfcfc #000000 #000000;
#X obj 1356 445 list store;
#X msg 1047 375 get 0;
#X msg 1103 376 get 1;
#X obj 1056 338 sel 0 1 2 3 4 5 6 7 8 9 11, f 84;
#X msg 1660 374 get 11;
#X msg 1161 376 get 2;
#X msg 1218 376 get 3;
#X msg 1272 375 get 4;
#X msg 1327 374 get 5;
#X msg 1383 374 get 6;
#X msg 1433 375 get 7;
#X msg 1488 373 get 8;
#X msg 1540 373 get 9;
#X msg 1596 373 get 10;
#X obj 1309 157 t b l;
#X obj 1195 157 list length;
#X obj 1214 52 inlet;
#X obj 1062 156 sel 1 2;
#X obj 1032 204 random 7;
#X obj 1104 203 int 3;
#X obj 1140 670 loadbang;
#X obj 163 767 tgl 19 0 empty empty empty 0 -10 0 12 #fcfcfc #000000 #000000 0 1;
#X obj 124 800 spigot;
#X obj 163 685 loadbang;
#X msg 227 767 0;
#X obj 266 767 tgl 19 0 empty empty empty 0 -10 0 12 #fcfcfc #000000 #000000 0 1;
#X obj 227 801 spigot;
#X text 168 898 MIDI index;
#X text 456 427 globální;
#X text 456 447 ovládání;
#X text 458 468 oktávy;
#X text 676 188 tónu;
#X text 667 147 globální;
#X text 667 167 ovládání;
#X text 1401 270 náhodný výběr ze seznamu;
#X text 1258 41 oktáva náhodně: 1;
#X text 1258 57 oktáva střed: 2;
#X text 1037 36 seznam tónů;
#X text 1050 53 k výběru;
#X text 1263 922 znak noty;
#X text 453 894 ovl. prvek tónu ->;
#X text 702 895 <- ovl. prvek oktávy;
#X text 85 0 ovl.;
#X text 80 13 prvek;
#X text 82 28 tónu;
#X text 133 0 ovl.;
#X text 128 13 prvek;
#X text 124 28 oktávy;
#X text 180 28 MUTE;
#X text 294 28 -1 okt.;
#X text 399 27 +1 okt;
#X text 513 25 -1 půlt.;
#X text 582 24 +1 půlt.;
#X text 26 2 čtení;
#X text 26 18 znaku;
#X text 17 34 = bang;
#X connect 0 0 12 0;
#X connect 1 0 14 0;
#X connect 1 0 40 0;
#X connect 1 0 33 0;
#X connect 2 0 22 0;
#X connect 2 0 62 0;
#X connect 2 0 64 0;
#X connect 3 0 20 0;
#X connect 3 0 96 0;
#X connect 4 0 24 0;
#X connect 5 0 26 0;
#X connect 6 0 38 0;
#X connect 7 0 31 0;
#X connect 12 0 13 0;
#X connect 12 0 95 0;
#X connect 13 0 93 0;
#X connect 14 0 17 0;
#X connect 14 0 57 0;
#X connect 15 0 13 1;
#X connect 16 0 18 0;
#X connect 17 0 15 0;
#X connect 18 0 63 0;
#X connect 19 0 92 0;
#X connect 20 0 19 0;
#X connect 21 0 57 0;
#X connect 22 0 23 0;
#X connect 22 0 58 0;
#X connect 23 0 24 1;
#X connect 24 0 61 0;
#X connect 25 0 10 0;
#X connect 26 0 60 0;
#X connect 27 0 10 0;
#X connect 28 1 25 0;
#X connect 29 0 30 0;
#X connect 30 0 31 1;
#X connect 31 0 34 0;
#X connect 32 0 35 0;
#X connect 32 0 36 0;
#X connect 33 0 29 0;
#X connect 34 0 32 0;
#X connect 35 0 9 0;
#X connect 36 0 26 0;
#X connect 37 0 43 0;
#X connect 38 0 41 0;
#X connect 39 0 42 0;
#X connect 39 0 44 0;
#X connect 40 0 37 0;
#X connect 41 0 39 0;
#X connect 42 0 9 0;
#X connect 43 0 38 1;
#X connect 44 0 24 0;
#X connect 45 0 11 0;
#X connect 46 0 11 0;
#X connect 47 0 11 0;
#X connect 48 0 11 0;
#X connect 49 0 11 0;
#X connect 50 0 11 0;
#X connect 51 0 11 0;
#X connect 52 0 11 0;
#X connect 53 0 11 0;
#X connect 54 0 11 0;
#X connect 55 0 11 0;
#X connect 56 0 11 0;
#X connect 57 0 45 0;
#X connect 57 1 46 0;
#X connect 57 2 47 0;
#X connect 57 3 48 0;
#X connect 57 4 49 0;
#X connect 57 5 50 0;
#X connect 57 6 51 0;
#X connect 57 7 52 0;
#X connect 57 8 53 0;
#X connect 57 9 54 0;
#X connect 57 10 55 0;
#X connect 57 11 56 0;
#X connect 57 12 45 0;
#X connect 58 0 26 1;
#X connect 59 0 27 0;
#X connect 60 0 59 0;
#X connect 61 0 28 0;
#X connect 62 0 16 0;
#X connect 63 0 17 1;
#X connect 64 0 14 0;
#X connect 66 0 85 0;
#X connect 66 0 86 0;
#X connect 67 0 68 1;
#X connect 68 0 69 0;
#X connect 69 0 74 0;
#X connect 70 0 68 0;
#X connect 71 0 9 0;
#X connect 72 0 71 0;
#X connect 73 0 71 0;
#X connect 74 0 72 0;
#X connect 74 1 73 0;
#X connect 74 2 76 0;
#X connect 74 3 77 0;
#X connect 74 4 78 0;
#X connect 74 5 79 0;
#X connect 74 6 80 0;
#X connect 74 7 81 0;
#X connect 74 8 82 0;
#X connect 74 9 83 0;
#X connect 74 10 84 0;
#X connect 74 11 75 0;
#X connect 75 0 71 0;
#X connect 76 0 71 0;
#X connect 77 0 71 0;
#X connect 78 0 71 0;
#X connect 79 0 71 0;
#X connect 80 0 71 0;
#X connect 81 0 71 0;
#X connect 82 0 71 0;
#X connect 83 0 71 0;
#X connect 84 0 71 0;
#X connect 85 0 70 0;
#X connect 85 1 71 1;
#X connect 86 0 67 0;
#X connect 87 0 88 0;
#X connect 88 0 89 0;
#X connect 88 1 90 0;
#X connect 89 0 10 0;
#X connect 90 0 10 0;
#X connect 91 0 21 0;
#X connect 92 0 93 1;
#X connect 93 0 8 0;
#X connect 94 0 92 0;
#X connect 95 0 97 0;
#X connect 96 0 97 1;
#X connect 97 0 8 0;
