#N canvas 370 1020 1920 997 12;
#X obj 424 578 list;
#X obj 503 770 list store;
#X obj 424 686 t b b l;
#X obj 368 788 f;
#X obj 428 745 + 1;
#X msg 476 732 0, f 2;
#X msg 368 819 get \$1 1;
#X symbolatom 1133 1150 17 0 0 0 - - - 16;
#X obj 623 829 list fromsymbol;
#X obj 617 791 s rewind!;
#X obj 1570 1265 list tosymbol;
#X listbox 1461 1242 2 0 0 0 - - - 24;
#X obj 578 1318 list store;
#X obj 606 1187 t b b l;
#X obj 527 1235 f;
#X obj 610 1246 + 1;
#X msg 629 1220 0, f 2;
#X msg 527 1266 get \$1 1;
#X obj 499 1197 bng 25 250 50 0 empty empty empty 0 -10 0 12 #ffffff #000000 #000000;
#X floatatom 642 1449 5 0 0 0 - - - 0;
#X obj 641 1360 bng 19 250 50 0 empty empty empty 0 -10 0 12 #fcfcfc #000000 #000000;
#X obj 279 745 bng 25 250 50 0 empty empty empty 0 -10 0 12 #fcfcfc #000000 #000000;
#X text 229 701 iterace textu po slovech;
#X text 288 1205 iterace slov po písmenech;
#X obj 184 31 inlet;
#X text 189 7 INPUT;
#X obj 511 33 inlet;
#X text 508 3 sequencer bang;
#X obj 448 1615 outlet;
#X obj 583 1614 outlet;
#X obj 1328 1313 outlet;
#X text 1307 1348 display slova;
#X text 1447 1347 display znaku;
#X obj 1467 1318 outlet;
#X obj 424 33 inlet;
#X text 413 3 textentry;
#X obj 1332 1088 symbol;
#X msg 643 1395 0;
#X obj 1508 1061 symbol ú;
#X obj 1435 1064 symbol Ú;
#X obj 424 1355 sel 195 196 197;
#X obj 1576 1059 symbol Ů;
#X obj 1647 1057 symbol ů;
#X obj 1716 1055 symbol Ď;
#X obj 1797 1054 symbol ď;
#X obj 1953 1048 symbol ť;
#X obj 1869 1054 symbol Ť;
#X obj 2045 1047 symbol Ň;
#X obj 2116 1047 symbol ň;
#X obj 2192 1049 symbol Ó;
#X obj 2255 1046 symbol ó;
#X obj 313 1499 + 200;
#X obj 360 1499 + 300;
#X obj 406 1499 + 400;
#X obj 294 1533 int;
#X obj 345 1538 int;
#X obj 392 1536 int;
#X floatatom 582 1583 5 0 0 0 - - - 0;
#X obj 427 1398 t b b;
#X obj 445 1423 t b b;
#X obj 466 1449 t b b;
#X obj 2327 1046 symbol Ě;
#X obj 2396 1045 symbol ě;
#X obj 2463 1045 symbol Š;
#X obj 2526 1044 symbol š;
#X obj 2598 1047 symbol Č;
#X obj 2667 1049 symbol č;
#X obj 2737 1047 symbol Ř;
#X obj 2806 1049 symbol ř;
#X obj 2874 1050 symbol Ž;
#X obj 2940 1046 symbol ž;
#X obj 3010 1047 symbol Ý;
#X obj 3077 1049 symbol ý;
#X obj 3160 1051 symbol Á;
#X obj 3231 1051 symbol á;
#X obj 3300 1052 symbol Í;
#X obj 3369 1053 symbol í;
#X obj 3434 1052 symbol É;
#X obj 3502 1053 symbol é;
#X obj 248 203 textfile;
#X msg 204 141 rewind;
#X obj 247 387 list append;
#X obj 200 345 list store;
#X obj 256 299 t b l;
#X obj 251 249 list;
#X obj 360 270 bng 19 250 50 0 empty empty empty 0 -10 0 12 #fcfcfc #000000 #000000;
#X obj 257 464 list store;
#X obj 184 73 t b b b b a;
#X obj 324 423 t b b;
#X obj 154 172 until;
#X obj 77 74 r rewind!;
#X obj 1609 1013 sel 354 386 574 575 442 443 564 565 535 536 347 379 454 455 560 561 440 441 552 553 589 590 357 389 329 361 341 373 337 369, f 279;
#X obj 133 110 t b b;
#X text 49 55 na konci čtení;
#X text 23 210 smyčka načte všechny "zprávy";
#X obj 443 1585 r rewind!;
#X obj 1332 1048 r rewind!;
#X text 388 1354 ->;
#X obj 511 69 s cti!;
#X obj 464 1163 r cti!;
#X text 654 864 převod slova na;
#X text 682 883 seznam ASCII indexů;
#X text 177 1338 indexy českých znaků je třeba;
#X text 198 1364 sloučit do jednoho čísla;
#X text 258 1614 do sekvenceru: konec slov;
#X text 636 1614 do převodníku;
#X connect 0 0 2 0;
#X connect 1 0 8 0;
#X connect 1 0 7 0;
#X connect 1 1 9 0;
#X connect 2 1 5 0;
#X connect 2 1 21 0;
#X connect 2 2 1 1;
#X connect 3 0 4 0;
#X connect 3 0 6 0;
#X connect 4 0 3 1;
#X connect 5 0 3 1;
#X connect 6 0 1 0;
#X connect 7 0 30 0;
#X connect 8 0 13 0;
#X connect 10 0 11 0;
#X connect 11 0 33 0;
#X connect 12 0 40 0;
#X connect 12 1 20 0;
#X connect 12 1 21 0;
#X connect 13 1 16 0;
#X connect 13 2 12 1;
#X connect 14 0 15 0;
#X connect 14 0 17 0;
#X connect 15 0 14 1;
#X connect 16 0 14 1;
#X connect 17 0 12 0;
#X connect 18 0 14 0;
#X connect 19 0 51 0;
#X connect 19 0 53 0;
#X connect 19 0 52 0;
#X connect 19 0 57 0;
#X connect 20 0 37 0;
#X connect 21 0 3 0;
#X connect 24 0 87 0;
#X connect 26 0 98 0;
#X connect 34 0 0 0;
#X connect 36 0 33 0;
#X connect 37 0 19 0;
#X connect 38 0 11 0;
#X connect 39 0 11 0;
#X connect 40 0 58 0;
#X connect 40 1 59 0;
#X connect 40 2 60 0;
#X connect 40 3 19 0;
#X connect 41 0 11 0;
#X connect 42 0 11 0;
#X connect 43 0 11 0;
#X connect 44 0 11 0;
#X connect 45 0 11 0;
#X connect 46 0 11 0;
#X connect 47 0 11 0;
#X connect 48 0 11 0;
#X connect 49 0 11 0;
#X connect 50 0 11 0;
#X connect 51 0 54 1;
#X connect 52 0 55 1;
#X connect 53 0 56 1;
#X connect 54 0 57 0;
#X connect 55 0 57 0;
#X connect 56 0 57 0;
#X connect 57 0 29 0;
#X connect 57 0 91 0;
#X connect 58 0 54 0;
#X connect 58 1 18 0;
#X connect 59 0 55 0;
#X connect 59 1 18 0;
#X connect 60 0 56 0;
#X connect 60 1 18 0;
#X connect 61 0 11 0;
#X connect 62 0 11 0;
#X connect 63 0 11 0;
#X connect 64 0 11 0;
#X connect 65 0 11 0;
#X connect 66 0 11 0;
#X connect 67 0 11 0;
#X connect 68 0 11 0;
#X connect 69 0 11 0;
#X connect 70 0 11 0;
#X connect 71 0 11 0;
#X connect 72 0 11 0;
#X connect 73 0 11 0;
#X connect 74 0 11 0;
#X connect 75 0 11 0;
#X connect 76 0 11 0;
#X connect 77 0 11 0;
#X connect 78 0 11 0;
#X connect 79 0 84 0;
#X connect 79 1 85 0;
#X connect 79 1 89 1;
#X connect 80 0 79 0;
#X connect 81 0 86 1;
#X connect 81 0 82 1;
#X connect 82 0 81 0;
#X connect 83 0 82 0;
#X connect 83 1 81 1;
#X connect 84 0 83 0;
#X connect 85 0 81 1;
#X connect 85 0 82 1;
#X connect 85 0 88 0;
#X connect 86 0 0 0;
#X connect 87 2 89 0;
#X connect 87 3 80 0;
#X connect 87 4 79 0;
#X connect 88 0 86 1;
#X connect 88 1 86 0;
#X connect 89 0 79 0;
#X connect 90 0 92 0;
#X connect 91 0 39 0;
#X connect 91 1 38 0;
#X connect 91 2 41 0;
#X connect 91 3 42 0;
#X connect 91 4 43 0;
#X connect 91 5 44 0;
#X connect 91 6 46 0;
#X connect 91 7 45 0;
#X connect 91 8 47 0;
#X connect 91 9 48 0;
#X connect 91 10 49 0;
#X connect 91 11 50 0;
#X connect 91 12 61 0;
#X connect 91 13 62 0;
#X connect 91 14 63 0;
#X connect 91 15 64 0;
#X connect 91 16 65 0;
#X connect 91 17 66 0;
#X connect 91 18 67 0;
#X connect 91 19 68 0;
#X connect 91 20 69 0;
#X connect 91 21 70 0;
#X connect 91 22 71 0;
#X connect 91 23 72 0;
#X connect 91 24 73 0;
#X connect 91 25 74 0;
#X connect 91 26 75 0;
#X connect 91 27 76 0;
#X connect 91 28 77 0;
#X connect 91 29 78 0;
#X connect 91 30 10 0;
#X connect 92 0 89 0;
#X connect 92 1 80 0;
#X connect 95 0 28 0;
#X connect 96 0 36 0;
#X connect 99 0 18 0;
