#N struct 1013-basic float x float y float bw float bc float csr float
cw float cc;
#N canvas 95 42 1219 868 10;
#X obj 822 330 keyname;
#X obj 514 232 list store;
#X obj 583 695 list tosymbol;
#X msg 583 715 label \$1;
#X obj 583 736 s \$0-canvas;
#X msg 822 282 append \$1 \, bang;
#X obj 100 100 cnv 8 260 22 empty \$0-canvas empty 2 11 0 14 -225280
-62784 0;
#X obj 822 408 route 1;
#X obj 822 352 list;
#X obj 822 430 route Return;
#X obj 514 276 route return back;
#X obj 822 184 key;
#X obj 822 206 spigot;
#X msg 822 452 prepend return \, bang;
#X obj 822 260 sel 0 8 10 27 127;
#X obj 822 304 s \$0-list;
#X obj 822 474 s \$0-list;
#X obj 514 188 r \$0-list;
#X obj 514 254 list trim;
#X obj 822 500 keyname;
#X obj 822 567 route 1;
#X obj 822 522 list;
#X obj 822 633 s \$0-list;
#X obj 822 589 route BackSpace;
#X msg 822 611 prepend back \, bang;
#X obj 600 298 s \$0-back;
#X obj 672 298 s \$0-type;
#X obj 583 675 r \$0-type;
#X obj 586 188 r \$0-set;
#X obj 586 210 t b a;
#X obj 496 735 s \$0-set;
#X obj 822 659 r \$0-back;
#X obj 861 703 list length;
#X obj 861 725 - 1;
#X obj 822 747 list split;
#X obj 822 769 s \$0-set;
#X obj 822 681 t a a;
#X obj 861 184 r \$0-clicked;
#X obj 101 472 f \$0;
#X msg 101 448 bang;
#X obj 101 423 loadbang;
#X msg 170 507 \; pd-\$1-graph clear;
#X msg 170 539 traverse pd-\$1-graph \, bang;
#X obj 170 559 pointer;
#N canvas 0 50 450 707 \$0-graph 0;
#X scalar 1013-basic 0 0 3 259 0.01 2 900 \;;
#X coords 0 0 1 1 260 22 2 100 100;
#X restore 100 100 pd \$0-graph;
#N canvas 223 462 680 479 basic-template 0;
#X obj 41 167 outlet;
#X obj 135 105 r \$0-flash;
#X obj 205 105 r \$0-clicked;
#X obj 40 23 struct \$0-basic float x float y float bw float bc float
csr float cw float cc;
#X obj 134 70 drawpolygon bc bw 1 0 0 0 1 0 1 1 0 1 0 0 0 1;
#X obj 135 130 drawpolygon cc cw csr 0.15 csr 0.9;
#X connect 1 0 5 0;
#X connect 2 0 5 0;
#X connect 3 0 0 0;
#X restore 99 328 pd basic-template;
#X obj 99 351 route click;
#X msg 99 373 1;
#X obj 99 396 s \$0-clicked;
#X obj 870 208 tgl 15 0 empty empty empty 17 7 0 10 -262144 -1 -1 1
1;
#X obj 967 467 s \$0-clicked;
#X obj 101 493 t b f f;
#X msg 967 444 0;
#X obj 410 696 r \$0-clicked;
#X obj 410 736 tgl 15 0 \$0-flash empty empty 17 7 0 10 -262144 -1
-1 1 1;
#X obj 410 716 metro 500;
#X obj 101 723 set \$0-basic csr;
#X floatatom 101 701 5 0 0 0 - - -;
#X obj 613 584 s \$0-csr;
#X obj 101 677 r \$0-csr;
#X obj 613 334 list length;
#X obj 628 518 /;
#X obj 613 540 *;
#X msg 628 495 1 32;
#X obj 822 238 spigot;
#X obj 868 237 r \$0-<32;
#X obj 629 401 s \$0-<32;
#X obj 629 381 < 32;
#X obj 514 300 list tosymbol;
#X obj 496 695 r \$0-clicked;
#X obj 613 471 t f b;
#X obj 496 715 sel 1;
#X obj 514 608 outlet;
#X obj 613 436 clip 0 32;
#X obj 613 562 + 0.01;
#X obj 528 583 s \$0-csr;
#X obj 528 334 list length;
#X obj 543 519 /;
#X obj 528 541 *;
#X msg 543 496 1 32;
#X obj 556 401 s \$0-<32;
#X obj 556 381 < 32;
#X obj 528 472 t f b;
#X obj 528 435 clip 0 32;
#X obj 528 562 + 0.01;
#X obj 528 355 - 1;
#X obj 412 637 s \$0-set;
#X obj 412 616 list fromsymbol;
#X obj 881 343 r \$0-clicked;
#X obj 881 366 tgl 15 0 empty empty empty 17 7 0 10 -262144 -1 -1 1
1;
#X obj 822 379 spigot;
#X obj 412 594 inlet;
#X obj 100 23 namecanvas \$0-base;
#X obj 101 621 append \$0-basic x y bc bw csr cw cc;
#X msg 101 600 0 0 259 3 0 2 900;
#X obj 101 651 s \$0-gp;
#X obj 194 700 r \$0-gp;
#N canvas 624 185 942 718 properties 0;
#X obj 460 225 r \$0-gp;
#X obj 134 61 inlet;
#X obj 169 458 s \$0-canvas;
#X msg 169 438 label_font \$1 \$2;
#X msg 205 388 label_pos \$1 \$2;
#N canvas 690 229 945 509 size 1;
#X obj 76 99 s pd-\$0-graph;
#X obj 76 146 s \$0-base;
#X obj 76 5 inlet;
#X obj 77 288 s \$0-canvas;
#X msg 77 266 vis_size \$1 \$2;
#X text 555 140 Syntax: #X coords [x_from]? [y_to]? [x_to]? [y_from]?
[width]? [heigth]? [graph_on_parent]? \; rn, f 111;
#X msg 76 76 donecanvasdialog 1 -1 2 0 0 1 1 \$1 \$2 0 0 \, dirty 0
;
#X msg 76 122 donecanvasdialog 1 -1 2 0 0 1 1 \$1 \$2 100 100 \, dirty
0, f 64;
#X msg 554 53 coords 0 0 1 1 \$1 \$2 2;
#X obj 554 79 s pd-\$0-graph;
#X obj 555 101 s \$0-base;
#X connect 2 0 4 0;
#X connect 2 0 6 0;
#X connect 2 0 7 0;
#X connect 4 0 3 0;
#X connect 6 0 0 0;
#X connect 7 0 1 0;
#X connect 8 0 9 0;
#X connect 8 0 10 0;
#X restore 134 483 pd size;
#X obj 205 409 s \$0-canvas;
#X obj 239 315 pack;
#X obj 250 293 t b f;
#X msg 239 341 color \$1 \$1 \$2;
#X obj 239 361 s \$0-canvas;
#X obj 307 224 set \$0-basic bc bw cc cw;
#X obj 344 141 t b f;
#X obj 379 166 t b f;
#X obj 414 197 t b f;
#N canvas 0 50 450 300 structcol 0;
#N canvas 698 380 527 368 rgb 0;
#X obj 272 63 inlet;
#X obj 349 65 inlet;
#X obj 415 66 inlet;
#X text 277 38 red;
#X text 347 40 green;
#X text 419 40 blue;
#X obj 415 112 t b f;
#X obj 349 170 +;
#X obj 349 195 t b f;
#X obj 349 226 +;
#X obj 272 89 * -65536;
#X obj 349 90 * -256;
#X obj 415 90 * -1;
#X obj 349 257 - 1;
#X obj 333 302 outlet;
#X connect 0 0 10 0;
#X connect 1 0 11 0;
#X connect 2 0 12 0;
#X connect 6 0 7 0;
#X connect 6 1 7 1;
#X connect 7 0 8 0;
#X connect 8 0 9 0;
#X connect 8 1 9 1;
#X connect 9 0 13 0;
#X connect 10 0 9 0;
#X connect 11 0 7 0;
#X connect 12 0 6 0;
#X connect 13 0 14 0;
#X restore 125 208 pd rgb;
#X obj 170 96 / 10;
#X obj 124 96 / 100;
#X obj 124 119 mod 10;
#X obj 170 119 mod 10;
#X obj 216 119 mod 10;
#X obj 124 66 t f f f;
#X obj 124 41 inlet;
#X obj 124 143 * 28.4;
#X obj 169 143 * 28.4;
#X obj 214 143 * 28.4;
#X obj 124 169 int;
#X obj 169 169 int;
#X obj 214 167 int;
#X obj 125 234 outlet;
#X connect 0 0 14 0;
#X connect 1 0 4 0;
#X connect 2 0 3 0;
#X connect 3 0 8 0;
#X connect 4 0 9 0;
#X connect 5 0 10 0;
#X connect 6 0 2 0;
#X connect 6 1 1 0;
#X connect 6 2 5 0;
#X connect 7 0 6 0;
#X connect 8 0 11 0;
#X connect 9 0 12 0;
#X connect 10 0 13 0;
#X connect 11 0 0 0;
#X connect 12 0 0 1;
#X connect 13 0 0 2;
#X restore 239 249 pd structcol;
#N canvas 0 50 450 300 structcol 0;
#N canvas 698 380 527 368 rgb 0;
#X obj 272 63 inlet;
#X obj 349 65 inlet;
#X obj 415 66 inlet;
#X text 277 38 red;
#X text 347 40 green;
#X text 419 40 blue;
#X obj 415 112 t b f;
#X obj 349 170 +;
#X obj 349 195 t b f;
#X obj 349 226 +;
#X obj 272 89 * -65536;
#X obj 349 90 * -256;
#X obj 415 90 * -1;
#X obj 349 257 - 1;
#X obj 333 302 outlet;
#X connect 0 0 10 0;
#X connect 1 0 11 0;
#X connect 2 0 12 0;
#X connect 6 0 7 0;
#X connect 6 1 7 1;
#X connect 7 0 8 0;
#X connect 8 0 9 0;
#X connect 8 1 9 1;
#X connect 9 0 13 0;
#X connect 10 0 9 0;
#X connect 11 0 7 0;
#X connect 12 0 6 0;
#X connect 13 0 14 0;
#X restore 125 208 pd rgb;
#X obj 170 96 / 10;
#X obj 124 96 / 100;
#X obj 124 119 mod 10;
#X obj 170 119 mod 10;
#X obj 216 119 mod 10;
#X obj 124 66 t f f f;
#X obj 124 41 inlet;
#X obj 124 143 * 28.4;
#X obj 169 143 * 28.4;
#X obj 214 143 * 28.4;
#X obj 124 169 int;
#X obj 169 169 int;
#X obj 214 167 int;
#X obj 125 234 outlet;
#X connect 0 0 14 0;
#X connect 1 0 4 0;
#X connect 2 0 3 0;
#X connect 3 0 8 0;
#X connect 4 0 9 0;
#X connect 5 0 10 0;
#X connect 6 0 2 0;
#X connect 6 1 1 0;
#X connect 6 2 5 0;
#X connect 7 0 6 0;
#X connect 8 0 11 0;
#X connect 9 0 12 0;
#X connect 10 0 13 0;
#X connect 11 0 0 0;
#X connect 12 0 0 1;
#X connect 13 0 0 2;
#X restore 250 272 pd structcol;
#X obj 134 101 route size fontsize textpos backcol textcol bordercol
borderwidth cursorcol cursorwidth chars, f 59;
#X obj 449 147 s \$0-chars;
#X connect 0 0 11 4;
#X connect 1 0 17 0;
#X connect 3 0 2 0;
#X connect 4 0 6 0;
#X connect 7 0 9 0;
#X connect 8 0 7 0;
#X connect 8 1 7 1;
#X connect 9 0 10 0;
#X connect 12 0 11 0;
#X connect 12 1 11 1;
#X connect 13 0 11 0;
#X connect 13 1 11 2;
#X connect 14 0 11 0;
#X connect 14 1 11 3;
#X connect 15 0 7 0;
#X connect 16 0 8 0;
#X connect 17 0 5 0;
#X connect 17 1 3 0;
#X connect 17 2 4 0;
#X connect 17 3 15 0;
#X connect 17 4 16 0;
#X connect 17 5 11 0;
#X connect 17 6 12 0;
#X connect 17 7 13 0;
#X connect 17 8 14 0;
#X connect 17 9 18 0;
#X restore 1009 236 pd properties;
#X obj 1009 190 inlet;
#X obj 881 508 r \$0-clicked;
#X obj 881 531 tgl 15 0 empty empty empty 17 7 0 10 -262144 -1 -1 1
1;
#X obj 822 544 spigot;
#X obj 672 366 r \$0-chars;
#X obj 681 421 r \$0-chars;
#X obj 681 461 r \$0-chars;
#X msg 681 482 set 1 \$1;
#X text 741 18 size fontsize textpos backcol textcol bordercol borderwidth
cursorcol cursorwidth chars;
#X connect 0 0 8 0;
#X connect 0 1 8 1;
#X connect 1 0 18 0;
#X connect 2 0 3 0;
#X connect 3 0 4 0;
#X connect 5 0 15 0;
#X connect 7 0 9 0;
#X connect 8 0 90 0;
#X connect 9 0 13 0;
#X connect 9 0 52 0;
#X connect 10 0 68 0;
#X connect 10 1 25 0;
#X connect 10 1 76 0;
#X connect 10 2 26 0;
#X connect 10 2 60 0;
#X connect 11 0 12 0;
#X connect 12 0 64 0;
#X connect 13 0 16 0;
#X connect 14 5 5 0;
#X connect 17 0 1 0;
#X connect 18 0 10 0;
#X connect 19 0 21 0;
#X connect 19 1 21 1;
#X connect 20 0 23 0;
#X connect 21 0 101 0;
#X connect 23 0 24 0;
#X connect 24 0 22 0;
#X connect 27 0 2 0;
#X connect 28 0 29 0;
#X connect 29 0 1 0;
#X connect 29 1 1 1;
#X connect 31 0 36 0;
#X connect 32 0 33 0;
#X connect 33 0 34 1;
#X connect 34 0 35 0;
#X connect 36 0 34 0;
#X connect 36 1 32 0;
#X connect 37 0 12 1;
#X connect 37 0 49 0;
#X connect 38 0 51 0;
#X connect 39 0 38 0;
#X connect 40 0 39 0;
#X connect 42 0 43 0;
#X connect 43 0 93 7;
#X connect 45 0 46 0;
#X connect 46 0 47 0;
#X connect 47 0 48 0;
#X connect 49 0 64 1;
#X connect 51 0 94 0;
#X connect 51 1 42 0;
#X connect 51 2 41 0;
#X connect 52 0 50 0;
#X connect 53 0 55 0;
#X connect 55 0 54 0;
#X connect 57 0 56 0;
#X connect 59 0 57 0;
#X connect 60 0 67 0;
#X connect 60 0 73 0;
#X connect 61 0 62 1;
#X connect 62 0 74 0;
#X connect 63 0 61 0;
#X connect 64 0 14 0;
#X connect 65 0 64 1;
#X connect 67 0 66 0;
#X connect 68 0 72 0;
#X connect 69 0 71 0;
#X connect 70 0 62 0;
#X connect 70 1 63 0;
#X connect 71 0 30 0;
#X connect 73 0 70 0;
#X connect 74 0 58 0;
#X connect 76 0 85 0;
#X connect 77 0 78 1;
#X connect 78 0 84 0;
#X connect 79 0 77 0;
#X connect 81 0 80 0;
#X connect 82 0 78 0;
#X connect 82 1 79 0;
#X connect 83 0 82 0;
#X connect 84 0 75 0;
#X connect 85 0 83 0;
#X connect 85 0 81 0;
#X connect 87 0 86 0;
#X connect 88 0 89 0;
#X connect 89 0 90 1;
#X connect 90 0 7 0;
#X connect 91 0 87 0;
#X connect 91 0 72 0;
#X connect 93 0 95 0;
#X connect 94 0 93 0;
#X connect 96 0 56 1;
#X connect 98 0 97 0;
#X connect 99 0 100 0;
#X connect 100 0 101 1;
#X connect 101 0 20 0;
#X connect 102 0 81 1;
#X connect 102 0 67 1;
#X connect 103 0 83 2;
#X connect 103 0 73 2;
#X connect 104 0 105 0;
#X connect 105 0 63 0;
#X connect 105 0 79 0;
#X coords 0 0 1 1 260 22 2 100 100;
