#N struct 1050-basic float x float y float bw float bc float csr float cw float cc;
#N canvas 1916 1033 1920 997 12;
#X obj 834 2212 noteout 1;
#X obj 834 2177 makenote 90 500;
#X msg 234 140 read poet.txt;
#X obj 72 665 asciicon;
#X floatatom 834 2119 5 0 0 0 - - - 0;
#X obj 834 2146 spigot;
#X obj 898 2116 tgl 19 0 empty empty empty 0 -10 0 12 #fcfcfc #000000 #000000 0 1;
#X obj 145 315 textentry;
#X obj 72 635 r conIN;
#X obj 72 1877 s conOUT;
#X obj 818 2079 r conOUT;
#X obj 877 66 textseq;
#X obj 877 31 r seqIN;
#X obj 577 2119 textinputunit;
#X obj 497 2226 s seqIN;
#X obj 574 2162 s conIN;
#X listbox 72 435 31 0 0 0 - - - 24;
#X listbox 72 514 5 0 0 0 - - - 36;
#X obj 617 166 vsl 50 100 30 300 0 0 empty empty set\ BPM -6 -60 0 18 #00ff04 #000000 #000000 0 1;
#X obj 617 303 s BPM;
#X obj 1570 35 r BPM;
#X floatatom 617 278 5 0 0 0 - - - 0;
#X obj 636 2162 s slovo;
#X obj 708 2117 s pismeno;
#X obj 72 408 r slovo;
#X obj 72 487 r pismeno;
#X obj 248 367 s ENTRY;
#X obj 600 2072 r ENTRY;
#X obj 249 245 s INPUT;
#X obj 528 2073 r INPUT;
#X obj 877 577 s togglegate;
#X obj 898 2075 r togglegate;
#X obj 1223 578 s seqOUT;
#X obj 677 2072 r seqOUT;
#X obj 1570 576 s seqLength;
#X obj 936 2151 r seqLength;
#X obj 617 117 loadbang;
#X msg 617 141 120;
#X text 704 2018 IN/OUT ↓;
#X msg 302 180 read;
#X msg 162 92 read input.txt;
#X obj 472 2183 spigot;
#X obj 540 2164 tgl 19 0 empty empty empty 0 -10 0 12 #fcfcfc #000000 #000000 0 1;
#X obj 428 2043 r loop?;
#X obj 763 164 s loop?;
#X obj 763 116 tgl 35 0 empty empty LOOP -4 -10 0 18 #ff0400 #000000 #000000 0 1;
#X obj 428 2073 * -1;
#X obj 428 2105 + 1;
#X obj 462 2104 loadbang;
#X obj 809 2122 bng 19 250 50 0 empty empty empty 0 -10 0 12 #fcfcfc #000000 #000000;
#X floatatom 998 2116 5 0 0 0 - - - 0;
#X obj 998 2067 loadbang;
#X msg 998 2091 90;
#X text 1048 2118 <- MIDI velocity;
#X text 109 52 Kliknutím na zpávy se načtou příslušné .txt soubory;
#X text 1195 33 SEKVENCER;
#X connect 1 0 0 0;
#X connect 1 1 0 1;
#X connect 2 0 28 0;
#X connect 3 0 9 0;
#X connect 4 0 5 0;
#X connect 5 0 1 0;
#X connect 6 0 5 1;
#X connect 7 0 26 0;
#X connect 8 0 3 0;
#X connect 10 0 4 0;
#X connect 10 0 49 0;
#X connect 11 0 30 0;
#X connect 11 1 32 0;
#X connect 11 2 34 0;
#X connect 12 0 11 0;
#X connect 13 0 41 0;
#X connect 13 1 15 0;
#X connect 13 2 22 0;
#X connect 13 3 23 0;
#X connect 18 0 21 0;
#X connect 20 0 11 1;
#X connect 21 0 19 0;
#X connect 24 0 16 0;
#X connect 25 0 17 0;
#X connect 27 0 13 1;
#X connect 29 0 13 0;
#X connect 31 0 6 0;
#X connect 33 0 13 2;
#X connect 35 0 1 2;
#X connect 36 0 37 0;
#X connect 37 0 18 0;
#X connect 39 0 28 0;
#X connect 40 0 28 0;
#X connect 41 0 14 0;
#X connect 42 0 41 1;
#X connect 43 0 46 0;
#X connect 45 0 44 0;
#X connect 46 0 47 0;
#X connect 47 0 42 0;
#X connect 48 0 42 0;
#X connect 50 0 1 1;
#X connect 51 0 52 0;
#X connect 52 0 50 0;
