#N canvas 215 1018 1920 997 12;
#X obj 574 -4 + 1;
#X floatatom 538 72 5 0 0 0 - - - 0;
#X floatatom 574 -58 5 0 0 0 - - - 0;
#X obj 291 163 sel 1;
#X obj 290 258 bng 25 250 50 0 empty empty 1 6 -10 0 20 #00ff04 #000000 #000000;
#X obj 353 162 sel 2;
#X obj 411 163 sel 3;
#X obj 475 163 sel 4;
#X obj 545 160 sel 5;
#X obj 604 160 sel 6;
#X obj 457 -166 loadbang;
#X obj 457 -136 bng 19 250 50 0 empty empty empty 0 -10 0 12 #fcfcfc #000000 #000000;
#X obj 491 -77 int 1;
#X obj 491 -42 + 1;
#X floatatom 602 -269 5 0 0 0 - - - 0;
#X obj 490 -232 metro;
#X obj 490 -202 bng 19 250 50 0 empty empty empty 0 -10 0 12 #fcfcfc #000000 #000000;
#X obj 134 150 tgl 45 0 empty empty RUN 5 -10 0 19 #faff00 #000000 #000000 0 1;
#X msg 539 -325 60000;
#X obj 549 -439 loadbang;
#X floatatom 639 -383 5 0 0 0 - - - 0;
#X obj 602 -338 bng 19 250 50 0 empty empty empty 0 -10 0 12 #fcfcfc #000000 #000000;
#X obj 602 -298 /;
#X msg 571 -403 120;
#X obj 574 -32 % 8;
#X obj 657 163 sel 7;
#X obj 711 160 sel 8;
#X obj 1700 575 f;
#X obj 293 342 vradio 19 1 1 9 empty empty empty 0 -10 0 12 #c6ffc7 #000000 #000000 7;
#X floatatom 1483 762 5 0 0 0 - - - 0;
#X obj 1381 715 * 2;
#X floatatom 1379 761 5 0 0 0 - - - 0;
#X obj 1478 713 * 1;
#X obj 1432 714 * 1.5;
#X floatatom 1433 758 5 0 0 0 - - - 0;
#X floatatom 1527 760 5 0 0 0 - - - 0;
#X floatatom 1636 759 5 0 0 0 - - - 0;
#X obj 1702 718 / 3;
#X floatatom 1694 753 5 0 0 0 - - - 0;
#X obj 1359 798 f;
#X obj 1413 798 f;
#X obj 1463 796 f;
#X obj 1507 796 f;
#X obj 1616 795 f;
#X obj 1674 795 f;
#X floatatom 548 -270 5 0 0 0 - - - 0;
#X obj 286 193 t b b;
#X obj 264 515 int;
#X floatatom 1583 756 4 0 0 0 - - - 0;
#X obj 1563 796 f;
#X obj 1527 718 * 0.75;
#X obj 1585 718 * 0.5;
#X obj 1640 719 * 0.25;
#X floatatom 1745 750 5 0 0 0 - - - 0;
#X obj 1725 794 f;
#X floatatom 1792 751 5 0 0 0 - - - 0;
#X obj 1772 793 f;
#X obj 1759 626 sel 0 1 2 3 4 5 6 7 8;
#X obj 1753 715 / 5;
#X obj 1753 719 / 7;
#X obj 351 258 bng 25 250 50 0 empty empty 2 6 -10 0 20 #00ff04 #000000 #000000;
#X obj 356 341 vradio 19 1 1 9 empty empty empty 0 -10 0 12 #c6ffc7 #000000 #000000 7;
#X obj 351 200 t b b;
#X obj 329 522 int;
#X obj 410 258 bng 25 250 50 0 empty empty 3 6 -10 0 20 #00ff04 #000000 #000000;
#X obj 417 343 vradio 19 1 1 9 empty empty empty 0 -10 0 12 #c6ffc7 #000000 #000000 7;
#X obj 415 202 t b b;
#X obj 393 524 int;
#X obj 472 258 bng 25 250 50 0 empty empty 4 6 -10 0 20 #00ff04 #000000 #000000;
#X obj 477 343 vradio 19 1 1 9 empty empty empty 0 -10 0 12 #c6ffc7 #000000 #000000 7;
#X obj 475 198 t b b;
#X obj 453 520 int;
#X obj 536 258 bng 25 250 50 0 empty empty 5 6 -10 0 20 #00ff04 #000000 #000000;
#X obj 541 343 vradio 19 1 1 9 empty empty empty 0 -10 0 12 #c6ffc7 #000000 #000000 7;
#X obj 540 205 t b b;
#X obj 518 527 int;
#X obj 601 259 bng 25 250 50 0 empty empty 6 6 -10 0 20 #00ff04 #000000 #000000;
#X obj 604 344 vradio 19 1 1 9 empty empty empty 0 -10 0 12 #c6ffc7 #000000 #000000 2;
#X obj 604 207 t b b;
#X obj 582 529 int;
#X obj 663 260 bng 25 250 50 0 empty empty 7 6 -10 0 20 #00ff04 #000000 #000000;
#X obj 667 345 vradio 19 1 1 9 empty empty empty 0 -10 0 12 #c6ffc7 #000000 #000000 2;
#X obj 668 204 t b b;
#X obj 646 526 int;
#X obj 725 260 bng 25 250 50 0 empty empty 8 6 -10 0 20 #00ff04 #000000 #000000;
#X obj 728 346 vradio 19 1 1 9 empty empty empty 0 -10 0 12 #c6ffc7 #000000 #000000 2;
#X obj 733 211 t b b;
#X obj 711 533 int;
#X obj 293 306 tgl 19 0 empty empty MUTE -2 -10 0 10 #ffc7c6 #000000 #000000 0 1;
#X obj 355 306 tgl 19 0 empty empty MUTE -2 -10 0 10 #ffc7c6 #000000 #000000 0 1;
#X obj 416 307 tgl 19 0 empty empty MUTE -2 -10 0 10 #ffc7c6 #000000 #000000 0 1;
#X obj 476 307 tgl 19 0 empty empty MUTE -2 -10 0 10 #ffc7c6 #000000 #000000 0 1;
#X obj 539 307 tgl 19 0 empty empty MUTE -2 -10 0 10 #ffc7c6 #000000 #000000 0 1;
#X obj 603 307 tgl 19 0 empty empty MUTE -2 -10 0 10 #ffc7c6 #000000 #000000 0 1;
#X obj 666 307 tgl 19 0 empty empty MUTE -2 -10 0 10 #ffc7c6 #000000 #000000 0 1;
#X obj 727 307 tgl 19 0 empty empty MUTE -2 -10 0 10 #ffc7c6 #000000 #000000 0 1;
#X obj 274 712 spigot;
#X obj 346 709 spigot;
#X obj 413 709 spigot;
#X obj 485 706 spigot;
#X obj 573 702 spigot;
#X obj 645 699 spigot;
#X obj 712 699 spigot;
#X obj 783 697 spigot;
#X obj 301 620 - 1;
#X obj 301 648 * -1;
#X obj 184 619 loadbang;
#X obj 301 672 tgl 19 0 empty empty empty 0 -10 0 12 #fcfcfc #000000 #000000 0 1;
#X obj 370 619 - 1;
#X obj 370 647 * -1;
#X obj 370 671 tgl 19 0 empty empty empty 0 -10 0 12 #fcfcfc #000000 #000000 0 1;
#X obj 431 615 - 1;
#X obj 431 643 * -1;
#X obj 431 667 tgl 19 0 empty empty empty 0 -10 0 12 #fcfcfc #000000 #000000 0 1;
#X obj 500 614 - 1;
#X obj 500 642 * -1;
#X obj 500 666 tgl 19 0 empty empty empty 0 -10 0 12 #fcfcfc #000000 #000000 0 1;
#X obj 597 619 - 1;
#X obj 597 647 * -1;
#X obj 597 671 tgl 19 0 empty empty empty 0 -10 0 12 #fcfcfc #000000 #000000 0 1;
#X obj 666 618 - 1;
#X obj 666 646 * -1;
#X obj 666 670 tgl 19 0 empty empty empty 0 -10 0 12 #fcfcfc #000000 #000000 0 1;
#X obj 737 612 - 1;
#X obj 737 640 * -1;
#X obj 737 664 tgl 19 0 empty empty empty 0 -10 0 12 #fcfcfc #000000 #000000 0 1;
#X obj 806 611 - 1;
#X obj 806 639 * -1;
#X obj 806 663 tgl 19 0 empty empty empty 0 -10 0 12 #fcfcfc #000000 #000000 0 1;
#X obj 46 123 inlet;
#X obj 40 615 outlet;
#X obj 372 813 outlet;
#X obj 524 821 outlet;
#X msg 528 -2 0;
#X msg 457 -107 -1;
#X obj 243 -287 inlet;
#X text 245 -323 BPM;
#X obj 204 202 loadbang;
#X msg 221 309 2;
#X obj -410 207 random 8;
#X floatatom -411 239 5 0 0 0 - - - 0;
#X obj 132 252 bng 35 250 50 0 empty empty Rand.\ rytm. -20 -10 0 14 #ff8300 #000000 #000000;
#X obj -342 207 random 8;
#X floatatom -343 239 5 0 0 0 - - - 0;
#X obj -277 206 random 8;
#X floatatom -278 238 5 0 0 0 - - - 0;
#X obj -207 206 random 8;
#X floatatom -208 238 5 0 0 0 - - - 0;
#X obj -414 272 random 8;
#X floatatom -415 304 5 0 0 0 - - - 0;
#X obj -346 272 random 8;
#X floatatom -347 304 5 0 0 0 - - - 0;
#X obj -281 271 random 8;
#X floatatom -282 303 5 0 0 0 - - - 0;
#X obj -211 271 random 8;
#X floatatom -212 303 5 0 0 0 - - - 0;
#X obj 210 252 bng 35 250 50 0 empty empty 1/4 6 -10 0 14 #00faff #000000 #000000;
#X text 122 398 osmin. s teč. (* 0.75);
#X text 123 418 osmin. (*0.5);
#X text 122 380 čtvrt. (*1);
#X text 123 342 půl. (*2);
#X text 123 437 šestnáct. (* 0.25);
#X text 123 456 triola (/ 3);
#X text 125 492 septola (/ 7);
#X text 125 472 kvintola (/ 5);
#X text 122 361 čtvrt. s teč. (* 1.5);
#X obj 528 -139 s delkaT;
#X obj 524 787 r delkaT;
#X text 644 -270 <- délka 1/4 v ms;
#X text 648 -350 BPM na ms;
#X text 369 -271 délka akt. kroku v ms ->;
#X text 383 24 index kroku sekvenceru ->;
#X text 580 825 délka kroku;
#X text 343 840 sekvencer bang;
#X text 44 645 brána;
#X text -23 99 vypínání na konci;
#X connect 0 0 1 0;
#X connect 1 0 3 0;
#X connect 1 0 5 0;
#X connect 1 0 6 0;
#X connect 1 0 7 0;
#X connect 1 0 8 0;
#X connect 1 0 9 0;
#X connect 1 0 25 0;
#X connect 1 0 26 0;
#X connect 2 0 24 0;
#X connect 3 0 46 0;
#X connect 4 0 96 0;
#X connect 5 0 62 0;
#X connect 6 0 66 0;
#X connect 7 0 70 0;
#X connect 8 0 74 0;
#X connect 9 0 78 0;
#X connect 10 0 11 0;
#X connect 11 0 134 0;
#X connect 12 0 2 0;
#X connect 12 0 13 0;
#X connect 13 0 12 1;
#X connect 14 0 27 0;
#X connect 14 0 45 0;
#X connect 15 0 16 0;
#X connect 16 0 12 0;
#X connect 17 0 130 0;
#X connect 17 0 134 0;
#X connect 17 0 15 0;
#X connect 18 0 22 0;
#X connect 19 0 23 0;
#X connect 19 0 18 0;
#X connect 19 0 21 0;
#X connect 20 0 21 0;
#X connect 20 0 22 1;
#X connect 21 0 22 0;
#X connect 22 0 14 0;
#X connect 23 0 20 0;
#X connect 24 0 0 0;
#X connect 25 0 82 0;
#X connect 26 0 86 0;
#X connect 27 0 30 0;
#X connect 27 0 32 0;
#X connect 27 0 33 0;
#X connect 27 0 37 0;
#X connect 27 0 50 0;
#X connect 27 0 51 0;
#X connect 27 0 52 0;
#X connect 27 0 58 0;
#X connect 27 0 59 0;
#X connect 28 0 47 1;
#X connect 29 0 41 1;
#X connect 30 0 31 0;
#X connect 31 0 39 1;
#X connect 32 0 29 0;
#X connect 33 0 34 0;
#X connect 34 0 40 1;
#X connect 35 0 42 1;
#X connect 36 0 43 1;
#X connect 37 0 38 0;
#X connect 38 0 44 1;
#X connect 39 0 45 0;
#X connect 40 0 45 0;
#X connect 41 0 45 0;
#X connect 42 0 45 0;
#X connect 43 0 45 0;
#X connect 44 0 45 0;
#X connect 45 0 15 1;
#X connect 45 0 166 0;
#X connect 46 0 4 0;
#X connect 46 1 47 0;
#X connect 47 0 57 0;
#X connect 48 0 49 1;
#X connect 49 0 45 0;
#X connect 50 0 35 0;
#X connect 51 0 48 0;
#X connect 52 0 36 0;
#X connect 53 0 54 1;
#X connect 54 0 45 0;
#X connect 55 0 56 1;
#X connect 56 0 45 0;
#X connect 57 0 39 0;
#X connect 57 1 40 0;
#X connect 57 2 41 0;
#X connect 57 3 42 0;
#X connect 57 4 49 0;
#X connect 57 5 43 0;
#X connect 57 6 44 0;
#X connect 57 7 54 0;
#X connect 57 8 56 0;
#X connect 58 0 53 0;
#X connect 59 0 55 0;
#X connect 60 0 97 0;
#X connect 61 0 63 1;
#X connect 62 0 60 0;
#X connect 62 1 63 0;
#X connect 63 0 57 0;
#X connect 64 0 98 0;
#X connect 65 0 67 1;
#X connect 66 0 64 0;
#X connect 66 1 67 0;
#X connect 67 0 57 0;
#X connect 68 0 99 0;
#X connect 69 0 71 1;
#X connect 70 0 68 0;
#X connect 70 1 71 0;
#X connect 71 0 57 0;
#X connect 72 0 100 0;
#X connect 73 0 75 1;
#X connect 74 0 72 0;
#X connect 74 1 75 0;
#X connect 75 0 57 0;
#X connect 76 0 101 0;
#X connect 77 0 79 1;
#X connect 78 0 76 0;
#X connect 78 1 79 0;
#X connect 79 0 57 0;
#X connect 80 0 102 0;
#X connect 81 0 83 1;
#X connect 82 0 80 0;
#X connect 82 1 83 0;
#X connect 83 0 57 0;
#X connect 84 0 103 0;
#X connect 85 0 87 1;
#X connect 86 0 84 0;
#X connect 86 1 87 0;
#X connect 87 0 57 0;
#X connect 88 0 104 0;
#X connect 89 0 108 0;
#X connect 90 0 111 0;
#X connect 91 0 114 0;
#X connect 92 0 117 0;
#X connect 93 0 120 0;
#X connect 94 0 123 0;
#X connect 95 0 126 0;
#X connect 96 0 131 0;
#X connect 97 0 131 0;
#X connect 98 0 131 0;
#X connect 99 0 131 0;
#X connect 100 0 131 0;
#X connect 101 0 131 0;
#X connect 102 0 131 0;
#X connect 103 0 131 0;
#X connect 104 0 105 0;
#X connect 105 0 107 0;
#X connect 106 0 107 0;
#X connect 106 0 128 0;
#X connect 106 0 125 0;
#X connect 106 0 122 0;
#X connect 106 0 119 0;
#X connect 106 0 116 0;
#X connect 106 0 113 0;
#X connect 106 0 110 0;
#X connect 107 0 96 1;
#X connect 108 0 109 0;
#X connect 109 0 110 0;
#X connect 110 0 97 1;
#X connect 111 0 112 0;
#X connect 112 0 113 0;
#X connect 113 0 98 1;
#X connect 114 0 115 0;
#X connect 115 0 116 0;
#X connect 116 0 99 1;
#X connect 117 0 118 0;
#X connect 118 0 119 0;
#X connect 119 0 100 1;
#X connect 120 0 121 0;
#X connect 121 0 122 0;
#X connect 122 0 101 1;
#X connect 123 0 124 0;
#X connect 124 0 125 0;
#X connect 125 0 102 1;
#X connect 126 0 127 0;
#X connect 127 0 128 0;
#X connect 128 0 103 1;
#X connect 129 0 17 0;
#X connect 133 0 1 0;
#X connect 134 0 12 0;
#X connect 135 0 20 0;
#X connect 137 0 156 0;
#X connect 138 0 28 0;
#X connect 138 0 85 0;
#X connect 138 0 81 0;
#X connect 138 0 77 0;
#X connect 138 0 73 0;
#X connect 138 0 69 0;
#X connect 138 0 65 0;
#X connect 138 0 61 0;
#X connect 139 0 140 0;
#X connect 140 0 28 0;
#X connect 141 0 139 0;
#X connect 141 0 142 0;
#X connect 141 0 144 0;
#X connect 141 0 146 0;
#X connect 141 0 148 0;
#X connect 141 0 154 0;
#X connect 141 0 152 0;
#X connect 141 0 150 0;
#X connect 142 0 143 0;
#X connect 143 0 61 0;
#X connect 144 0 145 0;
#X connect 145 0 65 0;
#X connect 146 0 147 0;
#X connect 147 0 69 0;
#X connect 148 0 149 0;
#X connect 149 0 73 0;
#X connect 150 0 151 0;
#X connect 151 0 77 0;
#X connect 152 0 153 0;
#X connect 153 0 81 0;
#X connect 154 0 155 0;
#X connect 155 0 85 0;
#X connect 156 0 138 0;
#X connect 167 0 132 0;
#X coords 0 -1 1 1 700 500 2 100 100;
